<?xml version="1.0" standalone="no"?>
<!DOCTYPE svg PUBLIC "-//W3C//DTD SVG 20010904//EN"
 "http://www.w3.org/TR/2001/REC-SVG-20010904/DTD/svg10.dtd">
<svg version="1.0" xmlns="http://www.w3.org/2000/svg"
 width="768.000000pt" height="768.000000pt" viewBox="0 0 768.000000 768.000000"
 preserveAspectRatio="xMidYMid meet">

<g transform="translate(0.000000,768.000000) scale(0.100000,-0.100000)"
fill="#000000" stroke="none">
<path d="M0 4255 c0 -2404 3 -3425 11 -3425 5 0 7 -4 4 -10 -3 -5 0 -7 8 -4 8
3 18 1 22 -5 3 -6 16 -11 27 -11 12 0 19 -3 15 -6 -6 -6 18 -21 105 -65 21
-11 38 -23 38 -28 0 -5 9 -11 21 -14 12 -3 18 -10 14 -16 -3 -6 0 -14 8 -16 9
-4 12 -18 10 -43 -3 -49 -18 -75 -52 -90 -15 -7 -37 -21 -48 -31 -11 -11 -39
-25 -62 -31 -23 -6 -39 -15 -36 -20 4 -6 -2 -10 -12 -10 -11 0 -31 -6 -46 -12
l-27 -13 0 -202 0 -203 3840 0 3840 0 0 799 c0 791 0 800 -20 806 -11 3 -20
13 -20 21 0 8 -4 14 -10 14 -5 0 -10 11 -10 26 0 19 7 28 30 35 l29 11 0 434
c0 333 -3 434 -12 434 -7 0 -6 4 3 10 10 6 11 10 3 10 -7 0 -13 8 -13 18 0 15
2 15 10 2 8 -11 10 3 9 48 -2 62 -12 80 -24 42 -3 -11 -11 -20 -18 -20 -6 0
-3 -6 7 -13 17 -12 15 -14 -18 -12 -20 0 -36 -3 -36 -7 0 -14 -37 -9 -50 7 -7
8 -20 15 -30 15 -9 0 -23 12 -30 28 -7 15 -15 22 -17 14 -7 -17 -23 -5 -23 18
0 10 -6 20 -12 23 -8 3 -6 8 7 13 11 4 26 15 33 23 8 9 11 10 7 4 -4 -8 0 -13
9 -13 9 0 16 5 16 10 0 6 3 9 8 9 19 -3 32 2 32 13 0 6 10 22 22 35 15 16 17
22 7 18 -11 -4 -19 1 -24 17 -4 13 -7 26 -6 30 0 4 -8 10 -19 13 -11 4 -20 11
-20 16 0 5 -5 9 -10 9 -6 0 -27 16 -47 35 -20 19 -44 35 -55 35 -10 0 -18 4
-18 8 0 4 -18 7 -40 5 -22 -1 -40 0 -40 2 0 2 12 17 28 32 15 15 23 25 18 21
-6 -5 -18 -8 -29 -8 -17 0 -17 1 -3 16 9 8 16 20 16 25 0 6 4 8 8 5 20 -12 30
10 17 34 -14 25 -14 25 -15 3 0 -13 -4 -23 -9 -23 -16 0 -21 38 -12 90 1 2 6
-1 13 -8 15 -15 32 -16 23 -2 -4 7 7 9 30 6 21 -3 34 -2 30 2 -4 4 -11 8 -16
8 -5 1 -11 3 -14 4 -8 4 -24 7 -40 9 -8 0 -15 6 -15 13 0 6 3 8 7 5 3 -4 12 1
20 11 12 16 13 16 6 -2 -5 -17 -3 -18 23 -13 16 3 23 4 17 1 -33 -14 -6 -21
72 -19 58 2 85 -1 85 -9 0 -7 4 -6 9 2 7 11 9 11 14 -1 6 -16 77 -29 77 -14 0
5 7 4 15 -3 13 -11 15 237 15 2219 l0 2231 -394 0 c-437 0 -406 5 -406 -69 0
-20 -13 -62 -30 -96 -16 -33 -30 -66 -30 -72 0 -7 -4 -13 -10 -13 -5 0 -10 -7
-10 -15 0 -26 -41 -139 -56 -156 -8 -9 -12 -18 -9 -21 3 -3 -20 -18 -52 -34
-32 -16 -61 -33 -65 -38 -3 -5 -16 -11 -28 -13 -12 -2 -53 -20 -91 -41 -39
-20 -87 -45 -107 -56 -20 -10 -40 -23 -44 -30 -5 -7 -8 -5 -8 5 0 37 -27 44
-105 28 -41 -8 -71 -11 -69 -7 3 4 1 8 -4 8 -11 0 -37 57 -37 82 0 9 -3 20 -7
24 -4 4 -3 13 3 20 6 8 8 22 4 31 -14 31 -15 53 -4 53 6 0 8 9 4 20 -4 11 -6
46 -6 77 0 90 -22 128 -127 222 -18 17 -33 32 -32 35 1 21 -2 26 -16 26 -8 0
-12 5 -9 11 4 6 0 9 -11 7 -18 -3 -44 -39 -44 -62 0 -21 -90 -108 -105 -102
-8 3 -15 10 -15 16 0 5 -6 10 -12 10 -28 1 -118 102 -118 133 0 15 -14 17
-100 17 -55 0 -101 -3 -101 -7 -1 -5 -2 -19 -3 -33 -3 -40 -37 -107 -60 -117
-24 -11 -56 -6 -56 8 0 5 -8 9 -17 9 -22 0 -139 89 -154 118 l-12 22 -2219 0
c-1554 0 -2218 -3 -2218 -11 0 -5 -4 -8 -9 -4 -5 3 -12 1 -15 -4 -4 -5 -2 -12
4 -16 5 -3 10 -15 10 -27 0 -16 -3 -18 -14 -9 -12 10 -14 6 -11 -24 2 -20 -1
-33 -6 -30 -5 4 -9 -2 -9 -11 0 -14 -3 -15 -12 -6 -7 7 -17 12 -22 12 -6 0 -4
-5 4 -10 10 -6 11 -10 2 -10 -6 0 -11 -5 -10 -11 2 -6 -3 -14 -11 -17 -8 -2
-11 0 -8 5 3 5 2 14 -2 21 -5 9 -14 5 -29 -13 -12 -14 -19 -25 -14 -25 13 0
-23 -20 -37 -20 -10 0 -11 3 -2 14 10 12 8 13 -9 9 -23 -6 -37 -23 -19 -23 10
0 10 -3 1 -12 -11 -11 -34 -16 -94 -21 -16 -1 -28 -7 -28 -13 0 -14 -44 -27
-48 -15 -1 4 -14 6 -29 3 -16 -3 -24 -1 -20 5 4 6 -8 14 -28 17 -21 4 -35 13
-35 21 0 8 -4 15 -10 15 -5 0 -34 25 -65 55 -31 30 -60 55 -65 55 -8 0 -25 64
-23 88 0 6 -5 12 -13 12 -12 0 -14 -509 -14 -3425z m515 3195 c3 -5 1 -10 -4
-10 -6 0 -11 5 -11 10 0 6 2 10 4 10 3 0 8 -4 11 -10z m3474 -250 c601 -39
1108 -204 1601 -524 77 -50 100 -71 101 -88 0 -13 3 -18 5 -11 7 17 84 -32
186 -119 187 -159 390 -375 532 -565 38 -51 77 -93 86 -93 22 0 160 -68 245
-120 39 -24 89 -46 113 -50 39 -6 46 -4 72 21 59 60 174 15 221 -86 32 -70 27
-89 -92 -325 -62 -121 -116 -223 -120 -226 -5 -3 -9 -14 -9 -25 0 -11 -7 -34
-16 -50 -14 -28 -14 -35 10 -107 82 -247 136 -626 136 -954 0 -142 -24 -411
-51 -568 -33 -193 -120 -510 -139 -510 -5 0 -7 8 -3 18 4 12 3 14 -5 7 -5 -5
-31 -64 -57 -129 -26 -66 -70 -166 -97 -223 l-50 -104 -22 20 c-12 12 -25 21
-29 21 -11 0 -8 -35 5 -48 8 -8 8 -15 0 -24 -5 -7 -14 -31 -18 -53 -16 -88
-235 -401 -399 -569 -62 -64 -67 -67 -80 -50 -10 13 -14 46 -15 99 0 55 3 75
10 65 7 -11 10 -3 9 30 0 34 -2 40 -9 25 -5 -12 -9 43 -9 144 -1 145 -3 167
-21 196 -22 36 -87 85 -113 85 -13 0 0 24 47 92 124 180 237 409 332 673 24
66 43 111 44 100 4 -79 81 245 95 400 4 39 10 108 14 155 8 83 7 224 -3 385
-5 85 -62 378 -95 492 -11 37 -22 87 -25 111 -6 42 -6 43 16 31 13 -6 31 -18
41 -27 14 -12 17 -12 17 -1 0 25 35 -36 58 -101 16 -47 21 -55 17 -27 -7 43 8
50 23 10 23 -63 31 -97 44 -189 8 -59 18 -98 26 -101 10 -4 10 -8 0 -20 -11
-14 -9 -15 17 -10 17 4 53 9 80 13 42 6 46 9 25 15 -22 6 -20 7 12 8 35 1 78
30 78 53 0 11 1 11 -107 -9 -51 -9 -95 -14 -98 -11 -3 2 -18 69 -34 149 -39
196 -39 199 -30 199 5 0 9 -7 9 -15 0 -9 9 -15 25 -15 20 0 28 -8 41 -41 12
-28 20 -37 27 -30 6 6 14 11 18 11 10 0 26 -46 40 -115 8 -34 15 -51 17 -39 3
21 -18 121 -33 156 -16 38 73 49 108 13 8 -8 25 -69 37 -137 13 -68 26 -132
31 -143 7 -18 8 -18 8 5 1 34 -27 194 -40 228 -6 15 -14 56 -18 92 -7 54 -6
68 8 84 10 12 1 9 -24 -9 -36 -25 -46 -27 -110 -22 -82 5 -158 29 -287 91
-130 63 -282 146 -286 157 -2 5 -13 9 -24 9 -11 0 -56 9 -100 21 -44 11 -83
18 -86 15 -3 -4 2 -6 11 -6 28 0 29 -19 2 -32 -22 -10 -25 -16 -20 -37 4 -14
13 -30 21 -34 13 -7 13 -11 2 -25 -10 -12 -10 -14 0 -8 7 4 12 1 12 -8 0 -9
-8 -16 -19 -16 -11 0 -21 -5 -23 -12 -3 -8 -11 -7 -28 5 -31 22 -53 22 -72 0
-22 -25 -32 -96 -18 -123 14 -27 3 -83 -15 -76 -16 6 -22 -15 -21 -74 1 -33
-4 -49 -19 -62 -32 -26 -11 -31 34 -9 22 12 47 21 54 21 8 0 20 7 27 15 18 21
22 20 79 -25 l51 -40 40 20 c46 24 60 25 60 6 0 -22 -62 -57 -77 -44 -10 8
-13 7 -13 -3 0 -8 -22 -29 -49 -47 -55 -38 -61 -53 -61 -167 0 -111 -6 -117
-51 -46 -21 34 -44 61 -51 61 -7 0 -27 -14 -45 -32 l-33 -32 0 91 c0 51 -4 94
-9 98 -6 3 -4 22 4 46 17 47 11 101 -17 167 -28 66 -24 85 20 107 20 10 31 20
24 22 -6 3 -10 9 -6 14 21 35 -70 -25 -139 -92 -28 -27 -59 -49 -69 -49 -19 0
-85 57 -81 70 1 4 -6 6 -16 3 -10 -2 -31 7 -49 22 -17 14 -44 30 -61 36 -17 6
-31 15 -31 20 0 5 -7 9 -15 9 -12 0 -15 13 -15 58 0 57 0 57 43 81 l42 23 60
-27 c143 -64 316 -135 330 -135 18 0 20 24 3 37 -7 5 -29 16 -48 23 -141 54
-298 127 -313 146 -15 19 -22 22 -43 14 -32 -13 -30 -13 -48 6 -15 14 -16 14
-16 -5 0 -25 -18 -36 -49 -32 -18 2 -22 -1 -18 -13 3 -8 2 -18 -3 -21 -6 -4
-10 11 -10 34 0 36 3 41 40 58 22 10 40 23 40 29 0 6 17 19 38 30 20 10 55 31
77 45 66 43 178 92 205 91 14 -1 48 -13 75 -26 28 -13 65 -27 83 -31 l33 -7
-23 46 -22 46 49 102 c28 55 62 117 76 137 14 20 31 47 38 59 13 25 18 18
-117 172 l-39 44 -12 -23 c-11 -21 -10 -27 17 -55 40 -42 102 -125 102 -137 0
-5 -7 -9 -15 -9 -9 0 -15 -6 -13 -12 3 -18 -12 -58 -21 -58 -4 0 -18 -9 -31
-20 -21 -18 -26 -19 -45 -6 -23 15 -45 5 -45 -20 0 -9 -16 -12 -49 -10 -51 3
-81 18 -81 42 0 12 -5 11 -26 -2 -20 -14 -33 -15 -62 -8 -50 12 -55 46 -13 85
17 15 31 24 31 18 0 -5 5 -9 12 -9 6 0 22 -10 35 -22 13 -12 23 -16 23 -10 0
7 11 12 25 12 22 0 24 2 14 24 -10 21 -15 23 -45 14 -21 -5 -40 -5 -51 1 -31
16 -109 1 -134 -25 -18 -19 -33 -24 -75 -24 -62 0 -189 59 -246 114 -20 20
-55 41 -78 48 -40 13 -41 14 -36 48 2 19 2 27 0 18 -3 -10 -10 -18 -15 -18
-12 0 -12 -37 1 -45 15 -9 12 -35 -5 -35 -8 0 -17 -11 -21 -25 -3 -14 -10 -25
-15 -25 -5 0 -9 -6 -9 -13 0 -7 -9 -20 -19 -29 -23 -20 -66 -35 -57 -20 4 6
-5 12 -21 14 -23 2 -29 9 -33 37 -7 45 -21 48 -43 11 -17 -27 -45 -41 -48 -22
-1 4 -3 23 -5 42 -2 19 -12 41 -21 48 -9 6 -13 12 -8 12 5 0 -4 14 -20 30 -20
21 -32 27 -39 19 -8 -7 -6 -14 6 -23 9 -7 20 -25 24 -42 4 -16 17 -47 30 -70
13 -22 24 -52 24 -67 0 -17 7 -28 19 -32 12 -4 18 -12 14 -21 -3 -8 1 -14 11
-14 11 0 16 -9 16 -30 0 -16 5 -30 10 -30 6 0 10 -9 10 -20 0 -11 7 -23 16
-27 10 -3 14 -13 11 -25 -3 -11 0 -22 9 -25 8 -3 14 -13 14 -23 0 -11 5 -22
10 -25 6 -3 10 -15 10 -26 0 -10 5 -27 11 -37 10 -15 7 -23 -16 -47 -24 -23
-32 -26 -47 -16 -14 9 -22 7 -38 -9 -11 -11 -24 -20 -29 -20 -16 0 -41 30 -47
56 -3 13 -10 24 -14 24 -16 0 -22 -59 -21 -200 2 -127 -1 -157 -24 -243 -14
-54 -32 -112 -40 -128 -18 -33 -56 -46 -91 -30 -13 6 -24 9 -24 8 0 -4 116
-201 187 -316 94 -152 93 -151 95 -232 1 -73 2 -73 15 -41 7 18 19 32 26 29
20 -6 21 -50 1 -64 -10 -7 -13 -13 -7 -13 6 0 14 -11 17 -24 4 -18 11 -23 26
-19 17 5 20 14 20 63 0 49 -3 58 -20 63 -11 3 -20 12 -20 21 0 27 35 18 75
-19 35 -34 36 -37 19 -49 -17 -13 -17 -14 3 -20 12 -4 24 -15 26 -24 3 -15 5
-15 12 2 6 13 4 21 -3 24 -17 5 -15 42 2 42 8 0 21 -8 28 -18 18 -25 48 -35
64 -21 17 14 63 19 70 8 7 -11 54 -12 54 -1 0 5 6 9 13 9 6 1 28 4 47 8 35 7
35 7 13 -9 -13 -10 -44 -26 -70 -38 -27 -11 -55 -26 -63 -33 -8 -7 -57 -34
-107 -60 -51 -27 -93 -52 -93 -58 0 -5 -10 -22 -21 -39 -16 -22 -19 -32 -10
-41 6 -6 11 -8 11 -4 0 18 2 23 17 40 9 9 22 17 30 17 7 0 13 3 13 8 0 4 15
13 33 21 17 8 34 17 37 20 3 3 21 14 40 25 19 10 69 36 110 58 41 22 80 45 87
50 8 6 20 4 35 -6 29 -18 165 -65 238 -81 44 -10 51 -14 35 -20 -11 -5 -24
-14 -28 -22 -4 -7 -16 -13 -25 -13 -9 0 -28 -9 -42 -20 -14 -11 -35 -20 -47
-20 -12 0 -24 -8 -28 -19 -3 -10 -15 -21 -26 -24 -12 -3 -18 -10 -15 -16 8
-13 46 8 46 26 0 14 26 23 74 25 23 1 36 6 36 15 0 7 11 13 25 13 23 0 31 -13
26 -42 0 -5 13 -8 29 -8 22 0 30 -5 30 -18 0 -10 5 -23 12 -30 14 -14 82 -17
74 -3 -3 4 2 17 10 27 11 14 17 15 20 7 3 -7 12 -13 19 -13 7 0 15 -9 18 -20
3 -12 0 -20 -8 -20 -7 0 -15 -17 -19 -37 -5 -31 -2 -41 14 -51 19 -14 18 -15
-10 -45 -24 -26 -30 -41 -30 -78 l0 -46 95 -53 c53 -29 94 -55 91 -58 -3 -2
-20 -6 -38 -8 -45 -5 -85 -23 -92 -40 -4 -11 -10 -12 -31 -2 -21 9 -33 8 -73
-11 -103 -48 -97 -41 -100 -104 -3 -57 -3 -57 -35 -57 -18 0 -49 -11 -70 -25
-36 -25 -37 -28 -37 -83 1 -62 10 -81 53 -100 30 -13 107 -6 107 9 0 5 4 9 10
9 15 0 50 33 50 48 0 9 15 5 50 -14 63 -34 67 -62 14 -93 -20 -12 -44 -19 -54
-16 -11 4 -19 -1 -23 -12 -3 -10 -50 -41 -110 -72 l-106 -54 -158 78 c-87 43
-160 81 -163 85 -3 4 -22 13 -42 20 -24 9 -39 22 -43 37 -8 34 -25 28 -25 -9
0 -32 4 -35 162 -118 89 -47 170 -92 179 -101 9 -9 27 -15 40 -15 22 1 24 -3
27 -56 2 -41 -2 -66 -16 -93 -11 -19 -18 -44 -15 -54 6 -22 -21 -45 -46 -38
-17 4 -19 1 -14 -24 5 -27 4 -29 -27 -29 -28 0 -32 3 -28 23 8 44 -46 66 -75
31 -9 -12 -15 -29 -11 -37 9 -24 -136 -27 -1086 -27 -942 0 -1295 6 -1247 23
22 7 26 13 21 29 -4 14 -2 18 5 14 6 -4 11 -1 12 6 0 7 4 3 9 -9 7 -17 17 -23
42 -23 40 0 35 4 -84 66 -49 24 -88 49 -88 54 0 6 16 18 35 27 19 9 35 20 35
25 0 11 -15 10 -44 -4 -26 -11 -38 -34 -41 -77 0 -14 -7 -27 -14 -29 -10 -3
-12 4 -9 26 4 29 0 33 -71 75 -42 24 -100 57 -128 73 -60 33 -66 44 -23 44 19
0 30 5 30 14 0 8 29 26 65 41 58 25 67 26 97 15 18 -7 40 -19 49 -27 8 -7 23
-13 31 -13 9 0 21 -7 28 -15 7 -8 28 -19 47 -24 28 -8 42 -6 71 10 45 24 80
24 105 1 13 -12 36 -17 72 -17 46 0 72 9 190 70 126 64 157 86 142 101 -3 3
-18 -1 -34 -9 -144 -79 -235 -117 -286 -118 -37 -1 -62 3 -78 15 -28 19 -58
20 -82 1 -11 -7 -36 -16 -57 -20 -31 -5 -46 -1 -80 20 -23 14 -56 34 -74 45
-18 10 -43 24 -55 31 -17 11 -25 11 -39 2 -33 -24 -205 -104 -216 -101 -22 6
-296 152 -296 157 0 8 58 41 71 41 6 0 6 -8 -1 -20 -9 -17 -2 -24 57 -59 114
-66 167 -75 207 -35 9 8 24 14 33 13 25 -3 53 11 53 26 0 22 31 27 46 8 12
-17 13 -16 23 10 11 29 29 35 49 15 9 -9 12 -8 12 5 0 9 7 17 15 17 8 0 15 5
15 10 0 6 9 10 19 10 11 0 23 10 27 23 6 17 10 9 15 -36 3 -32 9 -60 12 -64 9
-8 58 -8 82 1 17 7 17 5 -4 -13 -27 -24 -21 -26 26 -9 31 11 33 15 33 61 0 40
-3 50 -20 54 -16 4 -20 14 -20 43 0 49 -8 70 -27 70 -11 0 -13 -7 -8 -30 6
-29 5 -30 -27 -30 -18 0 -40 4 -48 10 -12 8 -12 11 1 27 19 21 9 72 -17 94
-14 12 -15 8 -9 -34 6 -41 4 -51 -17 -80 -33 -42 -111 -82 -136 -68 -10 5 -27
9 -37 8 -18 -2 -20 5 -23 64 l-3 67 -62 33 c-80 42 -131 70 -136 75 -2 1 44
27 102 56 l106 52 87 -44 c110 -56 104 -54 104 -37 0 9 -38 35 -94 63 l-93 48
-54 -23 c-30 -13 -89 -43 -133 -67 -43 -24 -80 -44 -82 -44 -7 0 -24 76 -24
106 0 29 5 34 84 73 46 22 89 41 96 41 8 0 24 -10 37 -21 19 -19 35 -22 111
-23 52 0 95 4 103 10 8 6 25 14 39 17 24 6 25 10 27 79 2 88 42 224 79 268 22
26 33 30 73 30 71 0 87 -22 84 -114 -3 -77 14 -186 29 -186 5 0 6 -5 2 -12 -4
-7 7 -3 26 8 22 12 35 28 37 46 2 14 13 53 24 85 31 87 68 216 69 234 0 9 -9
24 -20 34 -11 10 -20 25 -20 32 0 8 -3 13 -7 11 -153 -72 -222 -92 -321 -93
-79 0 -85 1 -108 28 -32 37 -30 59 7 102 l31 35 -31 25 c-41 35 -49 92 -24
167 l20 57 -29 12 c-40 16 -66 53 -73 103 -6 40 -1 60 51 182 3 7 -6 9 -24 6
-37 -5 -92 44 -92 82 0 31 13 33 37 7 24 -26 86 -36 123 -21 31 13 37 24 20
35 -17 10 -11 25 9 25 13 0 21 8 23 23 2 15 11 23 30 25 23 3 26 0 21 -19 -4
-16 -3 -20 6 -15 16 10 41 -12 34 -30 -3 -8 -18 -14 -34 -14 -17 0 -32 -6 -35
-14 -3 -8 -12 -12 -19 -10 -7 3 -16 1 -20 -5 -4 -7 6 -11 27 -11 18 -1 44 -7
57 -14 23 -13 27 -12 43 10 16 20 17 29 9 61 -17 61 -13 116 13 166 14 28 19
50 14 53 -43 27 -63 190 -33 277 14 43 14 46 -11 90 -14 26 -28 70 -31 99 -6
64 9 174 32 221 15 32 15 40 1 95 -9 33 -16 77 -16 98 0 58 -9 35 -11 -28 -2
-61 -18 -76 -62 -58 -14 5 -16 9 -7 10 13 0 13 1 0 10 -11 8 -8 9 12 4 27 -6
27 -5 18 27 -6 19 -10 35 -10 37 0 2 -4 0 -10 -3 -5 -3 -10 -2 -10 4 0 5 -2
16 -5 23 -4 9 7 22 30 34 31 17 37 17 45 4 8 -13 10 -13 10 2 0 9 3 23 6 32 5
13 -2 16 -35 16 l-41 0 0 54 c0 30 -5 56 -11 58 -9 3 -13 116 -9 218 0 6 7 10
16 10 8 0 12 5 9 10 -8 12 -45 13 -45 1 0 -5 -9 -11 -20 -14 -16 -4 -20 -14
-20 -51 0 -40 -3 -46 -21 -46 -11 0 -17 -5 -14 -10 4 -6 -1 -24 -9 -42 -9 -17
-16 -41 -16 -54 0 -34 -13 -37 -74 -15 -51 18 -59 18 -88 5 -59 -27 -63 -31
-66 -63 -2 -17 -9 -31 -15 -31 -8 0 -11 -13 -9 -39 4 -39 3 -40 -37 -52 -35
-11 -41 -16 -41 -41 0 -32 0 -31 -33 -19 -23 9 -24 13 -22 91 1 75 3 83 31
110 37 37 70 32 84 -14 l10 -31 -5 35 c-3 19 -9 36 -14 38 -4 1 -6 14 -3 27 5
29 98 102 257 203 777 491 1781 512 2598 55 57 -32 69 -36 77 -23 7 11 3 21
-17 37 -41 33 -315 167 -428 208 -55 20 -102 39 -105 42 -3 3 20 3 50 1 l55
-5 -35 15 c-68 28 -377 101 -516 121 -112 17 -191 21 -374 21 l-233 0 -54 36
c-30 20 -57 33 -60 30 -4 -4 1 -22 10 -40 20 -44 8 -56 -60 -61 -182 -14 -671
-180 -788 -268 -18 -14 -16 -15 23 -7 23 4 42 6 42 4 0 -6 -145 -78 -152 -76
-5 1 -8 -2 -8 -8 0 -5 -7 -7 -16 -3 -14 5 -12 8 7 19 35 19 14 17 -24 -2 -72
-38 -167 -108 -156 -115 7 -4 19 -5 28 -2 9 3 -21 -22 -66 -56 -45 -35 -87
-60 -93 -56 -6 4 -9 3 -8 -2 2 -5 -67 -76 -152 -158 -85 -83 -149 -143 -143
-134 7 9 9 20 5 24 -4 5 -2 5 4 2 6 -3 11 1 11 10 0 10 -24 -10 -58 -48 -32
-35 -58 -68 -58 -74 0 -5 4 -2 10 8 6 9 14 15 18 12 5 -2 11 4 14 15 3 11 10
20 16 20 14 0 14 -17 1 -25 -13 -8 -123 -155 -131 -175 -4 -8 2 -35 11 -60 10
-25 21 -71 25 -103 7 -59 14 -66 37 -44 7 7 41 24 75 39 l63 26 67 -26 c38
-15 72 -32 76 -39 4 -7 15 -13 22 -13 8 0 23 -8 34 -19 10 -10 30 -21 45 -25
25 -6 26 -8 26 -87 0 -60 3 -80 13 -76 6 2 12 14 12 27 0 29 15 35 40 16 17
-13 18 -18 8 -35 -7 -12 -13 -30 -13 -41 0 -11 -4 -20 -9 -20 -5 0 -13 -15
-17 -32 -3 -18 -20 -46 -35 -62 -16 -17 -29 -34 -29 -39 0 -5 -8 -21 -19 -35
-24 -35 -21 -70 8 -92 21 -15 22 -18 6 -24 -10 -3 -23 -1 -31 4 -9 8 -21 7
-43 -5 -17 -8 -31 -11 -31 -6 0 5 -10 11 -22 13 -18 2 -23 10 -24 33 -2 97 -3
100 -37 120 -17 11 -35 21 -39 23 -5 2 -8 -20 -8 -50 0 -65 -5 -73 -53 -86
-30 -8 -37 -8 -37 4 0 8 -9 14 -19 14 -10 0 -21 7 -25 15 -3 8 -12 12 -19 9
-8 -3 -17 2 -20 10 -4 9 -16 16 -28 16 -14 0 -19 5 -16 14 3 8 1 17 -6 20 -7
4 0 4 16 1 15 -3 27 -1 27 5 0 5 7 10 15 10 12 0 12 3 -2 20 -10 11 -24 20
-33 20 -26 1 -64 36 -57 54 9 22 37 32 47 16 4 -7 16 -9 27 -6 12 4 25 1 32
-8 7 -8 27 -18 44 -22 18 -3 34 -10 37 -14 3 -4 20 -11 38 -15 l34 -7 -7 57
c-4 31 -7 67 -7 81 0 14 -6 24 -15 24 -8 0 -11 -5 -7 -11 4 -7 -1 -9 -12 -7
-11 2 -18 11 -18 20 1 9 -4 14 -11 12 -8 -3 -11 -14 -7 -27 5 -20 3 -20 -23 5
-29 30 -45 29 -45 -3 0 -10 -4 -19 -10 -19 -16 0 -4 60 16 74 17 13 16 15 -14
30 -30 16 -32 16 -32 -2 0 -10 -18 -54 -39 -98 -106 -215 -316 -314 -550 -259
-229 54 -371 236 -371 472 0 89 29 185 78 260 l29 45 -41 41 c-41 41 -66 98
-66 149 0 45 30 112 68 151 91 93 269 81 338 -23 l26 -38 66 86 c116 153 196
244 328 372 574 557 1283 864 2089 903 33 2 76 4 95 5 19 1 109 -3 199 -8z
m1740 -206 c41 -36 92 -121 90 -154 0 -10 -2 -11 -6 -3 -3 8 -21 -8 -45 -38
-22 -28 -43 -47 -47 -42 -4 4 -13 27 -20 51 -7 24 -21 58 -33 75 l-20 32 6
-40 c4 -22 9 -59 12 -82 l7 -42 -30 8 c-17 5 -40 14 -51 20 -11 6 -27 8 -35 5
-11 -4 -17 6 -22 44 -5 39 -1 64 18 121 14 40 33 83 41 97 l17 24 37 -19 c20
-11 57 -36 81 -57z m576 14 c52 -242 21 -421 -94 -523 l-44 -40 -88 0 c-99 0
-116 8 -98 47 10 23 22 27 112 42 56 9 109 23 117 32 13 12 9 14 -30 9 -136
-14 -160 -15 -160 -4 0 6 17 38 37 71 28 45 34 61 24 67 -9 6 -10 11 -2 15 6
4 11 2 11 -4 0 -12 26 -9 108 12 59 15 67 33 11 24 -80 -13 -84 -12 -81 7 3
19 -6 21 -27 8 -8 -5 -10 -14 -6 -21 5 -8 4 -11 -3 -6 -6 4 -16 -4 -23 -16
-20 -37 -83 -118 -91 -118 -5 0 -15 18 -24 40 -9 22 -20 40 -25 40 -12 0 -11
-4 6 -78 14 -57 13 -65 -1 -87 -9 -14 -19 -25 -21 -25 -3 0 -28 19 -55 42
l-50 42 5 62 c12 154 159 295 377 360 96 29 108 29 115 2z m-4761 -54 c102
-51 205 -145 243 -222 36 -74 39 -161 6 -191 -12 -12 -25 -21 -29 -21 -4 0
-17 -12 -29 -26 l-22 -26 -12 29 c-9 23 -9 37 3 70 8 23 18 62 21 87 10 66
-10 59 -42 -14 -14 -33 -28 -60 -32 -60 -3 0 -21 29 -39 63 -29 57 -32 70 -27
123 5 57 -1 56 -20 -1 -6 -19 -8 -19 -29 8 -33 42 -63 35 -31 -7 8 -11 15 -24
15 -29 0 -9 -40 -5 -87 9 -24 7 -34 -13 -10 -21 123 -43 121 -41 155 -111 18
-37 32 -68 30 -69 -2 -2 -32 4 -68 12 -105 23 -140 27 -140 15 0 -12 63 -37
153 -62 50 -14 65 -23 79 -48 9 -17 14 -33 10 -36 -14 -8 -62 6 -55 17 4 7 0
8 -13 3 -50 -20 -80 -16 -117 15 -21 17 -45 45 -53 62 -25 48 -62 155 -56 161
3 3 0 6 -6 6 -27 0 -6 204 33 317 6 17 68 -3 169 -53z m4941 -419 c81 -21 165
-61 165 -78 0 -38 -129 -197 -160 -197 -6 0 -19 -9 -30 -20 -12 -12 -26 -17
-36 -13 -10 3 -15 2 -12 -3 4 -5 -25 -9 -67 -9 -68 1 -75 3 -113 35 -22 19
-41 38 -41 42 -1 4 17 13 39 19 37 11 44 10 102 -19 33 -18 73 -32 87 -32 l26
0 -30 16 c-62 32 -96 57 -88 64 4 4 40 17 79 29 74 21 117 51 76 51 -12 0 -55
-7 -97 -17 -41 -9 -78 -14 -81 -10 -3 3 7 26 22 52 15 26 28 56 29 68 1 12 3
25 4 30 2 12 63 8 126 -8z m-5221 -47 c6 -7 27 -40 45 -73 18 -33 40 -68 49
-77 19 -22 15 -22 -83 1 -117 28 -179 36 -171 22 4 -6 17 -11 29 -11 18 0 19
-2 7 -10 -22 -14 -3 -24 78 -39 102 -19 102 -19 49 -52 -26 -16 -50 -29 -54
-29 -3 0 -15 -8 -25 -17 -16 -15 -23 -15 -56 -3 -20 7 -54 26 -74 42 -37 29
-128 140 -128 157 0 13 128 69 195 85 76 18 123 19 139 4z m3183 6 c-3 -3 -12
-4 -19 -1 -8 3 -5 6 6 6 11 1 17 -2 13 -5z m-3072 -244 c-3 -5 -13 -10 -21
-10 -8 0 -12 5 -9 10 3 6 13 10 21 10 8 0 12 -4 9 -10z m1078 -367 c27 -5 28
-8 26 -60 -2 -47 -6 -57 -25 -65 -28 -13 -65 9 -42 23 10 7 10 9 1 9 -7 0 -13
5 -13 11 0 16 -48 59 -66 59 -7 0 -14 4 -14 9 0 12 61 30 85 25 11 -2 33 -7
48 -11z m-433 -148 c0 -15 -25 -55 -35 -55 -23 0 -25 14 -3 37 20 21 38 30 38
18z m515 -37 c15 -7 25 -19 25 -32 0 -30 -122 -85 -145 -66 -25 21 -17 35 30
58 25 12 45 29 45 37 0 18 11 19 45 3z m-215 -47 l44 -23 -24 -20 c-14 -12
-26 -15 -28 -9 -2 6 -21 21 -43 33 -36 20 -47 37 -33 51 7 7 22 1 84 -32z
m-375 -31 c-3 -6 1 -13 10 -16 8 -4 20 -26 26 -50 6 -24 15 -44 20 -44 24 0 5
-28 -22 -34 -39 -8 -47 -2 -42 28 3 16 -2 28 -16 38 -23 16 -33 62 -14 63 7 0
18 6 25 13 15 15 22 16 13 2z m675 -61 c0 -4 -7 -12 -15 -19 -12 -10 -15 -10
-15 1 0 8 -6 5 -15 -7 -14 -18 -14 -17 -15 12 0 17 2 33 5 36 7 7 55 -14 55
-23z m2345 -35 c13 -5 14 -8 3 -15 -10 -7 -10 -9 0 -9 6 0 12 -4 12 -10 0 -14
-13 -13 -35 3 -10 8 -15 19 -11 25 8 14 9 14 31 6z m-166 -105 c13 0 13 -2 2
-6 -18 -7 -41 24 -40 51 1 15 4 11 11 -11 6 -19 18 -33 27 -34z m249 39 c16
-16 16 -90 0 -106 -28 -28 -38 -13 -38 53 0 66 10 81 38 53z m204 -2 c-2 -5 1
-12 7 -16 25 -15 -1 -38 -50 -45 -40 -6 -49 -11 -49 -27 0 -15 -6 -19 -27 -16
-25 3 -29 8 -34 53 -7 58 -5 63 21 47 27 -17 65 -15 80 3 14 16 58 17 52 1z
m-2607 -20 l21 -23 -21 -19 c-12 -11 -47 -28 -78 -39 -32 -10 -57 -23 -57 -27
0 -4 -4 -8 -10 -8 -5 0 -10 7 -10 15 0 8 -6 15 -14 15 -8 0 -24 9 -37 19 l-24
20 60 26 c33 14 67 30 75 35 29 17 72 11 95 -14z m-606 -20 c-12 -10 -49 -16
-49 -7 0 5 10 11 23 13 22 4 34 1 26 -6z m339 -12 c32 -9 28 -19 -20 -46 -34
-18 -47 -21 -63 -13 -51 26 -51 28 0 46 63 21 56 20 83 13z m2949 -24 c3 -17
10 -33 14 -36 5 -3 9 -16 9 -28 0 -13 7 -29 15 -36 25 -21 17 -32 -21 -28 -27
3 -38 0 -45 -14 -5 -10 -20 -18 -32 -18 -27 0 -41 -10 -50 -32 -9 -24 -28 -23
-34 2 -7 26 -27 21 -31 -8 -2 -14 -11 -22 -22 -22 -14 0 -20 9 -22 33 -2 20
-8 31 -16 29 -10 -2 -10 2 -2 18 14 25 50 41 79 33 14 -4 30 5 53 29 18 19 38
37 45 39 7 2 14 13 16 24 7 51 35 60 44 15z m-530 14 c-3 -3 -12 -4 -19 -1 -8
3 -5 6 6 6 11 1 17 -2 13 -5z m-2115 -159 c-5 -25 0 -23 -46 -26 -50 -5 -57
13 -14 34 41 21 64 18 60 -8z m-237 -32 c3 -15 11 -30 16 -34 5 -3 12 -16 14
-30 4 -23 34 -88 45 -99 14 -14 41 -72 36 -77 -8 -9 20 -56 43 -73 12 -8 21
-22 21 -32 0 -10 9 -27 21 -39 27 -27 22 -65 -8 -61 -17 2 -23 -2 -23 -16 0
-11 -8 -22 -17 -25 -10 -2 -27 -8 -38 -13 -18 -7 -18 -6 -6 9 10 13 10 17 1
17 -7 0 -10 7 -6 15 3 8 0 15 -7 15 -9 0 -9 2 1 8 13 9 7 42 -8 42 -4 0 -12
-17 -17 -37 -10 -45 -45 -58 -63 -24 -6 12 -18 21 -28 21 -16 0 -17 18 -17
211 0 116 -3 213 -7 216 -18 10 -7 33 16 33 18 0 26 -7 31 -27z m2355 -136 c0
-8 9 -22 20 -32 19 -17 19 -18 -14 -51 -19 -19 -39 -34 -44 -34 -6 0 -12 -5
-14 -10 -5 -15 -85 -23 -108 -10 -15 8 -20 21 -20 50 0 45 23 64 77 62 18 -1
38 5 45 12 13 12 35 24 51 25 4 1 7 -5 7 -12z m-3950 -160 c14 -23 27 -51 30
-62 6 -21 19 -29 110 -70 33 -15 47 -25 35 -25 -12 -1 0 -11 33 -26 43 -19 53
-28 47 -42 -3 -9 -20 -88 -38 -174 -24 -123 -34 -158 -46 -158 -31 0 -176 31
-184 39 -5 5 -1 48 8 97 27 146 33 164 58 165 20 1 20 1 -3 8 -22 6 -23 8 -7
14 27 10 98 -3 104 -20 3 -8 -3 -39 -12 -71 -14 -44 -20 -52 -26 -37 -4 11 -4
32 -2 48 3 15 3 27 0 27 -3 0 -12 -33 -22 -72 -9 -40 -19 -81 -22 -92 -4 -16
-1 -18 21 -14 14 3 23 1 20 -3 -3 -5 -1 -9 5 -9 6 0 13 10 16 23 3 12 16 67
29 122 20 81 22 102 11 110 -21 17 -155 49 -164 39 -14 -14 -71 -257 -78 -327
-7 -76 -20 -68 150 -97 159 -27 155 -27 162 18 8 53 71 312 84 344 9 24 16 28
48 27 21 -1 43 0 48 1 43 10 44 -4 5 -154 -54 -212 -73 -373 -74 -641 -1 -374
46 -637 175 -971 74 -191 269 -549 325 -595 13 -11 11 -16 -20 -34 -40 -24
-96 -90 -96 -113 0 -8 -11 -25 -25 -38 -24 -22 -24 -27 -25 -161 -1 -76 -3
-174 -5 -218 -3 -77 10 -125 30 -107 5 4 5 1 1 -6 -4 -6 -11 -12 -16 -12 -13
0 -200 216 -276 320 -95 128 -194 278 -211 318 -7 17 -18 32 -23 32 -6 0 -10
6 -10 13 0 13 60 37 94 37 32 0 96 40 96 60 0 10 10 26 22 34 18 13 19 16 5
16 -9 0 -35 -18 -56 -39 -67 -67 -74 -68 -129 -18 -26 25 -57 48 -69 51 -13 4
-23 13 -23 20 0 8 -6 19 -14 26 -26 20 -141 330 -191 510 -121 436 -150 871
-89 1319 33 246 124 611 152 611 4 0 18 -19 32 -43z m5145 -27 c-6 -9 -9 -9
-16 1 -10 17 0 34 13 21 6 -6 7 -16 3 -22z m119 -17 c56 -26 52 -39 -22 -79
-101 -56 -103 -59 -102 -129 1 -33 1 -84 1 -114 -1 -53 -1 -54 -21 -36 -17 16
-20 31 -20 114 l-1 96 -32 20 c-18 11 -32 26 -32 34 0 11 165 109 187 110 4 1
23 -6 42 -16z m-4495 -63 c6 0 11 -16 11 -36 0 -28 8 -44 35 -71 19 -19 35
-44 35 -54 0 -11 7 -19 16 -19 12 0 14 -5 9 -17 -4 -10 -10 -28 -12 -39 -5
-20 -44 -48 -70 -49 -6 0 -15 -4 -19 -8 -18 -18 -34 -5 -34 28 0 24 -6 37 -20
45 -24 13 -26 38 -5 46 22 9 19 44 -4 44 -29 0 -34 15 -26 76 4 38 11 54 21
54 8 0 17 7 21 16 6 16 7 16 18 0 7 -9 17 -16 24 -16z m3135 15 c8 -8 24 -15
35 -15 23 0 28 -15 9 -26 -7 -4 -8 -3 -4 4 5 8 0 12 -13 12 -30 0 -51 -11 -51
-27 0 -14 -37 -52 -51 -53 -9 0 -20 29 -25 68 -4 28 -1 32 18 33 30 2 30 2 53
-7 18 -7 18 -6 6 9 -17 21 2 23 23 2z m440 -11 c20 -8 21 -57 1 -74 -9 -7 -26
-9 -45 -5 -29 6 -30 6 -30 -31 0 -20 3 -34 7 -31 3 4 12 2 19 -4 7 -6 26 -11
43 -11 16 -1 32 -7 35 -15 3 -7 12 -13 21 -13 24 0 18 -14 -22 -46 -20 -16
-42 -35 -47 -42 -6 -7 -17 -19 -23 -27 -8 -8 -14 -46 -14 -97 l-2 -83 -7 60
c-9 75 -17 102 -34 108 -10 4 -15 -7 -19 -35 -6 -43 -17 -61 -24 -40 -3 7 -14
22 -26 32 -16 16 -21 35 -24 99 -3 68 -1 80 13 83 9 2 31 30 49 63 20 36 48
71 71 87 46 32 39 29 58 22z m1079 -72 c19 -47 70 -233 65 -237 -2 -1 -17 -6
-34 -9 -22 -5 -35 -2 -44 9 -7 8 -19 15 -26 15 -8 0 -14 6 -14 14 0 11 -11 14
-42 13 -34 -2 -43 2 -46 17 -2 10 3 23 12 28 10 6 16 22 16 44 0 28 5 36 26
44 15 6 24 16 21 24 -7 17 22 76 38 76 7 0 20 -17 28 -38z m-4386 -43 c-11
-29 -12 -30 -18 -7 -3 13 -1 26 5 30 21 14 24 8 13 -23z m-1006 -13 c-6 -7
-19 -38 -28 -67 -13 -41 -18 -48 -21 -31 -5 30 29 112 47 112 10 0 11 -3 2
-14z m1169 -11 c10 0 16 -12 18 -32 3 -29 0 -33 -22 -33 -31 0 -34 6 -28 55 3
23 7 34 11 25 3 -8 13 -15 21 -15z m-589 -32 c28 -13 39 -24 39 -40 0 -28 -8
-29 -59 -1 -39 21 -49 36 -34 51 9 10 12 9 54 -10z m3447 -47 c-1 -1 -16 -6
-33 -12 -16 -5 -30 -16 -30 -24 0 -8 -4 -15 -10 -16 -5 0 -23 -6 -38 -12 -16
-7 -33 -12 -38 -12 -5 0 -9 -6 -9 -14 0 -17 -71 -30 -81 -14 -10 16 0 36 22
43 10 4 19 10 19 14 0 5 22 11 50 15 35 5 53 13 60 26 6 12 21 20 35 20 13 0
27 5 31 11 5 8 10 6 16 -5 6 -10 8 -18 6 -20z m2247 20 c8 -7 11 -16 8 -20 -4
-3 -1 -6 6 -6 7 0 19 -7 27 -15 9 -8 12 -15 8 -15 -4 0 11 -12 32 -26 21 -15
40 -27 42 -29 2 -1 5 -14 8 -29 5 -31 -31 -74 -58 -68 -9 2 -25 -1 -35 -6 -10
-5 -27 -6 -38 -1 -11 4 -15 8 -10 9 6 0 2 5 -8 11 -36 21 -63 116 -50 182 4
21 11 27 30 27 13 0 31 -6 38 -14z m-1519 -11 c21 -20 44 -79 44 -110 0 -26
-40 -104 -63 -124 -10 -7 -22 11 -49 76 l-36 86 41 43 c23 24 43 44 45 44 2 0
10 -7 18 -15z m-4527 -77 c-4 -24 -8 -47 -9 -51 0 -5 -4 -6 -9 -3 -5 4 -12 0
-15 -6 -4 -7 -4 -2 -1 12 2 14 5 33 5 42 0 14 24 48 34 48 2 0 0 -19 -5 -42z
m-289 -28 c-6 -23 -14 -40 -17 -36 -3 3 -2 18 2 33 12 42 12 42 15 56 1 9 3 9
6 0 3 -6 0 -30 -6 -53z m3730 40 c3 -3 14 -10 25 -14 18 -7 19 -8 3 -17 -19
-11 -108 7 -108 22 0 24 64 32 80 9z m-2785 -52 c16 -17 29 -40 27 -50 -2 -10
3 -18 10 -18 8 0 13 -10 13 -26 -2 -34 -49 -62 -76 -46 -17 11 -101 8 -120 -4
-5 -3 -9 0 -9 6 0 6 -11 15 -25 20 -33 13 -33 40 0 40 36 0 105 46 105 70 0
16 23 39 40 40 3 0 19 -14 35 -32z m593 26 c12 -4 22 -13 22 -20 0 -24 -29
-28 -66 -8 -33 18 -34 19 -12 26 32 8 30 8 56 2z m2256 -9 c-4 -8 -8 -15 -10
-15 -2 0 -4 7 -4 15 0 8 4 15 10 15 5 0 7 -7 4 -15z m340 -43 c3 -5 -1 -9 -9
-9 -8 0 -12 4 -9 9 3 4 7 8 9 8 2 0 6 -4 9 -8z m-3584 -22 c0 -5 -7 -10 -15
-10 -8 0 -15 5 -15 10 0 6 7 10 15 10 8 0 15 -4 15 -10z m683 -20 c38 -23 47
-43 47 -108 0 -35 4 -45 19 -49 16 -4 19 -12 15 -49 -4 -43 -3 -44 25 -44 16
0 31 -6 35 -15 3 -8 13 -15 22 -15 15 0 16 -8 10 -62 -6 -66 -26 -93 -71 -100
-11 -2 -19 -9 -18 -16 2 -7 -6 -10 -20 -8 -19 3 -22 9 -21 43 0 36 -3 42 -39
62 -35 21 -40 21 -56 7 -10 -9 -24 -16 -32 -16 -20 0 -159 72 -159 83 0 22
125 -11 192 -49 3 -2 14 4 24 13 19 19 45 36 83 53 17 7 20 14 13 23 -10 12
-12 18 -12 37 0 6 -4 10 -10 10 -5 0 -6 -7 -3 -17 4 -10 2 -14 -4 -10 -6 4
-10 -1 -9 -10 1 -12 -9 -18 -36 -20 l-38 -4 0 40 c0 30 -4 41 -15 41 -9 0 -15
10 -15 26 0 18 -4 25 -14 21 -11 -5 -13 2 -10 31 3 20 7 38 9 41 3 2 -5 11
-16 19 -21 15 -21 16 22 38 24 13 45 23 46 24 1 0 17 -9 36 -20z m-628 1 c10
-17 -9 -20 -30 -5 -18 14 -18 14 2 14 12 0 24 -4 28 -9z m4944 -53 c12 -55 6
-68 -32 -68 -11 0 -21 -9 -24 -20 -7 -26 -51 -28 -49 -3 0 11 -7 19 -20 21
-20 3 -21 6 -11 33 11 28 14 30 49 24 37 -7 38 -6 38 22 0 64 35 58 49 -9z
m-5289 6 c-12 -54 -22 -58 -22 -9 0 36 3 45 16 45 11 0 12 -8 6 -36z m425 -1
c-4 -10 -10 -26 -12 -35 -6 -21 -23 -24 -23 -5 0 6 -3 22 -6 35 -5 19 -2 22
21 22 22 0 26 -3 20 -17z m3365 -24 c53 -37 60 -46 69 -91 6 -27 11 -56 11
-63 0 -34 19 -12 25 29 5 32 16 53 41 77 l33 32 11 -27 c5 -15 13 -44 16 -65
5 -33 3 -38 -21 -49 -15 -7 -25 -15 -22 -19 4 -3 0 -17 -7 -32 -7 -14 -17 -47
-20 -73 -7 -49 -14 -56 -33 -37 -7 7 -8 19 0 38 11 31 2 75 -12 53 -4 -7 -12
7 -20 37 -7 27 -19 57 -26 68 -14 17 -14 17 -15 0 0 -10 -4 -15 -10 -12 -14 9
-12 -10 10 -95 27 -104 25 -106 -20 -15 -21 44 -39 75 -40 69 0 -7 -7 -14 -15
-18 -11 -4 -23 10 -41 47 l-27 52 23 67 c13 38 25 68 27 68 3 0 31 -18 63 -41z
m1274 -3 c3 2 0 -3 -7 -11 -15 -18 -47 -10 -47 11 0 10 6 11 24 4 13 -5 27 -7
30 -4z m-4494 -25 c0 -10 -28 -41 -36 -41 -2 0 -4 11 -4 25 0 18 5 25 20 25
11 0 20 -4 20 -9z m4797 -13 c-3 -8 -6 -5 -6 6 -1 11 2 17 5 13 3 -3 4 -12 1
-19z m-4582 -18 c3 -5 1 -10 -5 -10 -12 0 -41 -25 -40 -35 0 -3 0 -8 0 -13 0
-4 -19 -16 -41 -27 -66 -32 -79 -39 -79 -47 0 -4 8 -5 18 -2 14 5 14 3 -2 -10
-11 -9 -16 -16 -11 -16 4 0 0 -9 -10 -20 -10 -11 -23 -19 -28 -17 -13 4 -18
35 -6 43 5 3 9 10 9 16 0 7 -5 6 -14 -1 -9 -7 -14 -30 -14 -57 0 -25 -3 -48
-6 -51 -8 -9 -26 7 -26 24 0 9 -8 22 -17 29 -17 13 -17 13 0 14 28 0 19 30
-14 42 -36 12 -32 20 13 23 33 2 231 96 243 115 8 13 22 13 30 0z m4145 -55
c0 -8 8 -22 19 -31 11 -10 17 -24 13 -37 -3 -11 1 -25 9 -31 20 -16 49 -74 49
-97 0 -11 9 -29 19 -40 21 -23 34 -69 19 -69 -5 0 -6 -4 -3 -10 3 -5 -4 -12
-17 -14 -29 -6 -57 -4 -55 3 1 3 -2 7 -8 9 -5 1 -11 -6 -13 -18 -2 -11 -10
-20 -18 -20 -8 0 -14 -4 -14 -10 0 -5 -11 -10 -25 -10 -16 0 -23 4 -19 13 2 7
-6 19 -19 26 -18 9 -23 19 -19 37 3 14 0 24 -8 24 -15 0 -41 -26 -33 -34 15
-14 -24 -4 -45 12 -21 16 -22 20 -8 31 9 8 16 19 16 26 0 7 7 15 15 19 11 4
14 13 9 31 -4 18 -2 27 10 31 9 3 16 17 16 30 0 14 7 27 15 30 8 4 15 16 15
29 0 13 7 25 15 29 8 3 15 17 15 31 0 20 5 25 25 25 16 0 25 -6 25 -15z m-189
-73 l35 -67 -24 -49 c-13 -27 -32 -51 -42 -53 -20 -5 -55 -114 -48 -149 2 -10
-3 -27 -12 -37 -8 -9 -18 -32 -21 -50 l-5 -32 -11 35 c-5 19 -6 37 -1 38 14 6
9 22 -7 22 -8 0 -15 -9 -15 -19 0 -28 -11 -52 -21 -45 -10 6 -10 201 -1 281 6
44 16 63 65 123 31 38 60 70 65 70 4 0 23 -31 43 -68z m-681 7 c0 -16 -4 -28
-9 -25 -8 5 -3 56 5 56 2 0 4 -14 4 -31z m-3665 -4 c17 -2 32 -4 35 -5 3 0 -5
-9 -18 -20 -23 -19 -24 -19 -58 3 -38 25 -45 43 -11 32 12 -4 36 -9 52 -10z
m3640 -65 c0 -19 -7 -26 -33 -34 -39 -11 -46 -5 -38 28 10 41 71 47 71 6z
m-266 -39 c21 -30 19 -41 -9 -41 -18 0 -63 54 -53 64 15 14 43 4 62 -23z
m-3154 9 c3 -6 -4 -10 -17 -10 -18 0 -20 2 -8 10 19 12 18 12 25 0z m3251 -17
c-10 -10 -19 5 -10 18 6 11 8 11 12 0 2 -7 1 -15 -2 -18z m459 -23 c15 -6 25
-17 25 -30 0 -12 6 -20 13 -18 6 1 28 -1 48 -5 l37 -7 -14 -41 c-8 -22 -12
-45 -9 -50 14 -22 -33 -20 -131 7 -59 15 -111 33 -118 39 -6 6 -26 17 -43 24
-45 19 -41 35 12 49 38 10 51 10 75 -3 17 -9 30 -14 30 -11 0 2 16 0 35 -4 48
-11 44 4 -5 19 -44 13 -59 29 -39 42 14 9 39 6 84 -11z m1072 -77 c-2 -16 -4
-3 -4 27 0 30 2 43 4 28 2 -16 2 -40 0 -55z m-1307 37 c0 -5 -7 -10 -16 -10
-8 0 -12 5 -9 10 3 6 10 10 16 10 5 0 9 -4 9 -10z m432 -37 c23 -21 25 -99 2
-131 -9 -13 -13 -29 -10 -37 3 -8 1 -15 -4 -15 -8 0 -60 104 -60 122 0 21 30
78 41 78 7 0 21 -7 31 -17z m-3318 -33 c34 -18 50 -70 22 -70 -19 0 -154 -69
-163 -83 -8 -12 -9 -18 -12 -38 0 -5 -5 -7 -11 -4 -5 3 -7 0 -4 -8 3 -8 1 -18
-5 -22 -7 -4 -11 11 -11 44 0 45 -3 52 -30 67 -16 10 -32 24 -34 31 -6 14 70
63 97 63 9 0 20 6 24 14 11 20 54 36 77 29 11 -3 34 -13 50 -23z m-929 -10 c3
-11 15 -22 26 -25 10 -4 19 -11 19 -18 0 -8 -3 -8 -12 1 -7 7 -20 12 -30 12
-10 0 -18 5 -18 10 0 14 -43 13 -58 -2 -14 -14 -17 -11 -25 22 -6 24 -5 25 43
22 37 -3 51 -8 55 -22z m5122 -47 c-3 -10 -5 -2 -5 17 0 19 2 27 5 18 2 -10 2
-26 0 -35z m-330 11 c-3 -3 5 -18 18 -32 36 -39 52 -82 34 -93 -8 -5 -22 -9
-31 -9 -10 0 -18 -6 -18 -14 0 -17 -27 -28 -51 -21 -14 5 -19 1 -19 -13 0 -20
-18 -32 -46 -32 -8 0 -14 7 -14 15 0 8 -11 22 -25 31 -24 16 -24 17 -8 45 10
16 26 32 36 35 13 4 16 9 8 13 -13 8 31 51 53 51 8 0 16 7 20 15 3 8 15 15 27
15 12 0 20 -3 16 -6z m-4253 -26 c-3 -4 -12 -8 -20 -8 -8 0 -14 4 -14 8 0 4 9
8 19 8 11 0 17 -4 15 -8z m-536 -10 c17 -17 15 -26 -9 -39 -24 -12 -39 1 -39
34 0 20 30 23 48 5z m599 -6 c7 6 17 8 20 4 9 -9 -17 -26 -39 -26 -10 0 -18 7
-18 17 0 13 3 14 12 5 8 -8 15 -9 25 0z m3862 -21 c11 -7 9 -13 -8 -30 -19
-19 -61 -30 -61 -16 0 7 43 54 50 54 3 0 11 -3 19 -8z m-4439 -31 c0 -5 -2
-10 -4 -10 -3 0 -8 5 -11 10 -3 6 -1 10 4 10 6 0 11 -4 11 -10z m4230 -30 c0
-5 -4 -10 -10 -10 -5 0 -10 5 -10 10 0 6 5 10 10 10 6 0 10 -4 10 -10z m-4062
-15 c2 -2 0 -19 -3 -39 -5 -26 -12 -36 -26 -36 -11 0 -19 -5 -19 -11 0 -6 -7
-3 -16 6 -9 9 -23 14 -30 11 -24 -9 -15 24 14 54 20 21 33 27 52 23 14 -3 26
-7 28 -8z m4072 -15 c0 -5 -5 -10 -11 -10 -5 0 -7 5 -4 10 3 6 8 10 11 10 2 0
4 -4 4 -10z m-3260 -10 c0 -5 7 -10 15 -10 24 0 17 -20 -10 -30 -15 -6 -25
-17 -25 -29 0 -14 -10 -21 -37 -27 -50 -11 -55 -11 -75 -13 -9 0 -20 -11 -24
-23 -13 -45 -26 -52 -46 -26 l-18 23 -18 -23 c-16 -20 -20 -21 -45 -10 -15 7
-27 15 -27 18 0 3 26 15 58 25 31 11 63 25 70 32 7 7 20 13 28 13 8 0 14 7 14
15 0 8 9 15 20 15 30 0 69 21 75 42 7 19 45 26 45 8z m-1022 -31 c-2 -4 6 -16
16 -28 25 -28 19 -32 -27 -18 -34 11 -50 27 -27 27 6 0 9 3 9 8 -3 17 2 23 17
20 8 -2 14 -6 12 -9z m5133 -46 c-3 -68 -11 -67 -11 2 0 32 3 55 7 51 4 -3 6
-28 4 -53z m-5201 37 c0 -5 -4 -10 -10 -10 -5 0 -10 5 -10 10 0 6 5 10 10 10
6 0 10 -4 10 -10z m4950 -25 c0 -8 11 -17 25 -21 27 -7 34 -24 9 -24 -8 0 -12
-4 -9 -10 3 -6 -4 -10 -18 -10 -14 0 -31 -8 -38 -17 -12 -14 -12 -16 0 -9 9 6
12 5 9 -5 -3 -8 -14 -14 -26 -14 -12 0 -28 -9 -35 -20 -13 -16 -17 -17 -31 -6
-9 8 -14 16 -11 19 3 3 1 10 -3 16 -5 6 1 20 14 33 20 18 25 19 41 8 17 -13
16 -14 -4 -8 -17 4 -23 1 -23 -11 0 -19 25 -21 37 -3 14 22 12 37 -5 38 -14 0
-14 2 -2 6 8 3 23 17 35 29 23 27 35 30 35 9z m-4635 -37 c-1 -24 1 -47 5 -53
4 -5 11 -45 15 -87 5 -62 4 -78 -7 -78 -30 0 -42 -19 -42 -67 -1 -56 -19 -69
-26 -19 -5 33 -11 38 -90 76 -145 70 -170 86 -170 112 0 14 51 -3 71 -23 11
-11 33 -19 50 -19 17 0 45 -11 63 -25 48 -37 96 -32 96 10 0 32 -17 41 -39 21
-16 -15 -19 -14 -39 5 -13 11 -20 24 -17 30 8 12 35 12 35 -1 0 -5 15 -1 33 8
38 22 59 81 39 113 -17 27 -15 39 7 39 16 0 19 -7 16 -42z m-55 -30 c0 -6 -7
-7 -16 -4 -8 3 -12 2 -9 -4 8 -13 -6 -13 -25 0 -13 9 -12 12 4 25 20 15 46 5
46 -17z m510 -8 c0 -5 -2 -10 -4 -10 -3 0 -8 5 -11 10 -3 6 -1 10 4 10 6 0 11
-4 11 -10z m4020 0 c-8 -5 -22 -10 -30 -10 -13 0 -13 1 0 10 8 5 22 10 30 10
13 0 13 -1 0 -10z m-14 -35 c-24 -18 -33 -19 -42 -3 -5 8 -2 9 9 5 10 -3 17
-2 17 3 0 6 8 10 18 10 15 -1 15 -2 -2 -15z m330 -78 c-5 -59 -50 -256 -59
-263 -1 0 -67 -38 -145 -83 -132 -76 -180 -92 -167 -59 5 12 23 23 175 105 36
19 73 42 83 51 17 15 15 17 -36 37 -30 11 -56 24 -57 30 -1 5 29 26 66 46 92
49 124 79 124 116 0 20 -10 40 -27 58 -16 16 -21 26 -12 23 9 -4 22 -2 30 3
28 18 32 8 25 -64z m-308 43 c-15 -23 -28 -26 -28 -7 0 17 10 27 27 27 11 0
11 -4 1 -20z m-3534 -36 c10 -4 16 -18 16 -35 0 -25 -4 -29 -28 -29 -16 0 -36
6 -47 13 -25 19 -13 36 42 56 1 1 8 -2 17 -5z m-864 -73 c0 -5 24 -21 53 -36
171 -85 157 -75 157 -116 0 -31 -4 -38 -30 -49 -16 -7 -30 -16 -30 -21 0 -5
-6 -9 -14 -9 -8 0 -31 -9 -50 -21 -33 -19 -56 -19 -56 0 0 4 26 21 57 37 77
39 125 84 91 84 -6 0 -22 10 -35 22 -20 19 -27 20 -43 10 -13 -8 -26 -9 -37
-3 -10 5 -41 20 -68 33 -30 14 -50 29 -49 38 0 8 2 21 2 28 2 14 52 17 52 3z
m5580 -40 c0 -4 14 -12 31 -20 16 -7 28 -16 25 -19 -3 -2 -11 0 -18 6 -19 15
-52 -10 -36 -26 7 -7 9 -12 5 -12 -3 0 -15 10 -27 22 -22 23 -29 75 -8 62 8
-5 9 -1 5 12 -7 18 -7 18 8 0 8 -11 15 -22 15 -25z m-840 -81 l-11 -25 6 25
c2 14 5 34 6 45 2 19 2 19 6 0 2 -12 -1 -32 -7 -45z m890 20 c-20 -13 -33 -13
-25 0 3 6 14 10 23 10 15 0 15 -2 2 -10z m-86 -9 c4 -5 -3 -7 -14 -4 -23 6
-26 13 -6 13 8 0 17 -4 20 -9z m-5536 -39 c3 -30 1 -33 -20 -30 -18 2 -24 10
-26 36 -3 30 -1 33 20 30 18 -2 24 -10 26 -36z m5552 -12 c0 -5 -4 -10 -10
-10 -5 0 -10 5 -10 10 0 6 5 10 10 10 6 0 10 -4 10 -10z m-1560 -47 c27 -16
50 -31 50 -34 0 -3 -22 -18 -50 -33 l-49 -27 -62 32 -61 32 54 27 c29 15 56
28 60 29 5 0 30 -11 58 -26z m1545 -33 c12 20 45 -20 39 -46 -5 -18 -2 -24 11
-24 10 0 13 5 9 12 -4 7 -3 8 5 4 7 -4 9 -16 6 -27 -4 -11 -2 -26 4 -32 9 -12
17 -40 26 -92 2 -11 8 -32 14 -47 6 -16 8 -28 6 -28 -3 0 13 -24 36 -52 l42
-53 -26 -3 c-15 -2 -29 -11 -32 -23 -4 -10 -10 -19 -15 -19 -4 0 -22 -12 -39
-27 -16 -15 -45 -32 -63 -38 -18 -6 -32 -16 -31 -22 1 -6 -9 -8 -25 -6 -21 4
-24 2 -12 -6 13 -9 13 -11 -1 -11 -12 0 -16 -8 -15 -25 0 -14 6 -25 13 -25 6
0 14 -6 16 -12 3 -8 6 -6 6 5 1 9 5 17 10 17 5 0 7 -10 3 -22 l-5 -22 24 23
c24 22 24 22 27 2 2 -12 8 -21 13 -21 6 0 7 5 4 10 -3 6 3 10 15 10 12 0 18
-4 15 -10 -8 -12 18 -13 31 -1 5 5 25 12 44 16 23 4 30 3 22 -3 -11 -7 -9 -10
7 -15 12 -3 21 -2 21 3 0 15 37 17 66 4 16 -7 23 -13 16 -13 -7 -1 -11 -5 -8
-10 3 -4 17 -6 31 -4 13 3 22 10 19 15 -3 5 3 4 15 -3 14 -10 17 -15 8 -21 -8
-5 -4 -8 11 -8 12 0 22 -5 22 -11 0 -6 7 -8 17 -5 10 4 14 4 11 0 -4 -4 -3
-15 2 -25 9 -16 6 -17 -25 -12 -28 4 -35 2 -35 -11 0 -9 6 -16 13 -16 8 0 22
-15 32 -34 16 -30 17 -37 5 -51 -12 -14 -12 -18 1 -27 12 -8 12 -9 -1 -6 -19
6 -51 -27 -39 -39 5 -5 0 -9 -11 -9 -11 0 -20 4 -20 8 0 4 -7 8 -15 8 -13 0
-14 -4 -5 -20 6 -11 15 -18 19 -15 5 3 12 -2 15 -11 7 -19 -22 -64 -42 -64
-13 0 -13 -3 -4 -12 10 -10 6 -17 -14 -35 -15 -13 -35 -23 -46 -23 -10 0 -17
-5 -15 -11 1 -6 -4 -14 -12 -17 -10 -3 -12 0 -8 12 4 9 2 16 -3 16 -10 0 -15
-27 -11 -67 1 -17 -2 -21 -14 -17 -8 3 -13 10 -10 14 3 5 1 11 -4 15 -6 3 -8
12 -4 20 3 8 1 15 -5 15 -19 0 -42 -12 -42 -22 0 -6 6 -8 14 -5 9 4 15 0 15
-11 0 -9 1 -26 3 -37 2 -14 -3 -21 -19 -23 -16 -2 -23 -10 -23 -24 0 -12 -3
-19 -6 -15 -3 3 -22 -10 -42 -29 -22 -21 -46 -34 -64 -35 -39 -2 -45 -3 -53
-10 -3 -4 14 -4 37 -2 l43 5 -30 -23 c-16 -13 -31 -27 -33 -31 -2 -5 -12 -8
-22 -8 -9 0 -24 -8 -31 -17 -10 -11 -10 -14 -1 -9 6 4 12 3 12 -3 0 -5 -8 -9
-19 -8 -11 1 -17 7 -14 17 3 11 -2 16 -19 15 -35 -1 -68 -15 -69 -28 -1 -7 -2
-27 -4 -45 -3 -38 -15 -56 -15 -22 0 12 -8 29 -17 36 -17 13 -17 13 2 14 l20
1 -20 9 c-11 5 -27 9 -35 9 -9 0 -8 -4 5 -9 l20 -9 -20 -1 c-13 -1 -15 -3 -6
-7 11 -5 11 -7 0 -14 -11 -7 -9 -9 6 -9 18 0 18 -1 -3 -16 -12 -8 -27 -12 -34
-8 -8 5 -9 2 -5 -9 3 -10 2 -17 -2 -17 -5 0 -11 5 -13 11 -3 9 -10 9 -27 0
-22 -12 -22 -13 -4 -27 16 -13 15 -13 -9 -3 -31 13 -63 5 -52 -13 6 -10 4 -11
-7 0 -18 17 -39 15 -39 -3 0 -18 -20 -15 -37 5 -11 13 -12 13 -13 -3 0 -10 -7
-20 -15 -23 -8 -4 -15 -12 -15 -20 0 -8 -7 -14 -15 -14 -8 0 -18 0 -22 -1 -4
0 -9 4 -11 10 -2 6 3 11 12 11 8 0 18 4 21 10 4 6 -2 7 -17 1 -13 -5 -22 -16
-22 -25 1 -9 -2 -17 -7 -17 -13 -2 -22 -5 -42 -14 -15 -6 -16 -10 -5 -16 9 -6
6 -9 -12 -10 -14 -1 -32 -2 -40 -3 -8 0 -18 3 -21 7 -3 4 -16 -1 -30 -11 -13
-11 -31 -22 -39 -25 -8 -2 -1 -3 15 0 l30 3 -25 -17 c-50 -35 -97 -19 -62 21
9 11 11 16 5 12 -7 -4 -13 -3 -13 1 0 5 6 15 13 22 10 11 9 12 -2 6 -16 -9 -8
8 17 38 8 9 12 17 7 17 -4 0 -2 7 5 15 7 8 10 15 6 15 -9 0 33 70 59 99 129
140 209 253 219 307 1 6 23 49 49 95 26 45 47 86 47 91 0 4 5 8 10 8 6 0 10 6
10 14 0 7 13 38 29 68 17 31 27 58 24 62 -4 3 -1 6 6 6 7 0 10 4 7 8 -6 10 47
115 71 141 67 72 64 66 55 123 -4 29 -7 85 -6 123 7 177 17 215 76 276 15 16
31 36 36 45 5 9 20 17 34 17 15 1 24 5 21 10 -2 4 4 7 14 8 11 0 13 3 5 6 -6
2 -9 9 -6 14 4 6 11 6 19 -1 10 -8 15 -8 20 0z m-5517 -31 c-2 -6 -7 -10 -11
-10 -4 1 -15 1 -24 2 -15 0 -15 2 2 9 28 12 37 12 33 -1z m4120 -18 c15 -10
49 -29 76 -42 74 -36 86 -43 86 -49 0 -3 -66 -41 -147 -84 -136 -74 -147 -78
-159 -61 -7 10 -15 21 -16 24 -2 3 -23 16 -47 28 l-45 22 27 12 c19 9 27 19
25 33 -2 16 2 21 22 21 20 0 26 -6 28 -27 2 -16 6 -28 10 -28 14 0 72 46 72
58 0 9 7 11 23 6 45 -14 52 -11 52 26 0 30 -4 36 -24 38 -15 2 -30 -3 -37 -12
-10 -14 -12 -12 -12 11 0 16 2 31 5 36 7 13 34 8 61 -12z m-3928 -7 c0 -2 -7
-4 -15 -4 -8 0 -15 4 -15 10 0 5 7 7 15 4 8 -4 15 -8 15 -10z m-230 -3 c0 -13
-27 -21 -45 -15 -8 4 -12 10 -9 15 7 12 54 12 54 0z m4150 -52 c0 -5 -7 -9
-15 -9 -15 0 -20 12 -9 23 8 8 24 -1 24 -14z m-3976 -38 c131 -61 148 -65 206
-46 28 9 60 15 71 12 10 -3 19 -1 19 4 0 5 8 9 18 9 15 -1 15 -2 -3 -16 -11
-9 -50 -31 -87 -50 -38 -19 -68 -40 -69 -47 0 -6 -5 -2 -11 9 -5 12 -26 26
-46 32 -47 14 -192 99 -192 112 0 17 30 11 94 -19z m3643 8 l35 -22 -29 -18
c-36 -24 -48 -24 -91 3 l-35 21 34 18 c43 23 45 23 86 -2z m-3187 -102 c72
-41 75 -44 78 -82 2 -37 0 -41 -38 -62 l-40 -21 0 36 c0 40 0 39 -85 86 -70
39 -74 44 -46 67 33 27 46 24 131 -24z m450 -9 c0 -7 -7 -26 -16 -43 -8 -16
-13 -37 -11 -47 3 -10 1 -18 -4 -18 -14 0 -11 108 4 113 21 9 27 8 27 -5z m45
-48 c9 -15 -4 -50 -20 -50 -9 0 -13 9 -11 28 2 15 4 28 5 30 3 6 21 1 26 -8z
m-2400 -251 c-4 -5 -4 -9 -1 -9 2 0 13 -3 23 -6 15 -5 15 -4 3 5 -9 7 -11 11
-3 11 7 0 24 -11 39 -25 15 -14 30 -23 33 -20 3 4 -1 10 -9 15 -11 7 -10 9 7
7 12 0 19 -5 17 -9 -3 -4 11 -8 30 -8 20 0 36 -4 36 -10 0 -5 9 -10 20 -10 11
0 19 -5 17 -12 -1 -7 3 -12 8 -13 6 0 18 -5 29 -11 14 -8 16 -17 11 -35 -5
-13 -7 -26 -6 -29 2 -8 -111 -60 -130 -60 -10 0 -20 -4 -23 -9 -3 -4 -17 -6
-31 -3 -14 2 -25 0 -25 -5 0 -14 -117 -46 -144 -39 -26 6 -29 31 -5 48 11 8
11 9 -2 5 -13 -4 -16 1 -14 26 3 49 15 69 36 62 14 -5 17 -2 13 8 -3 8 -18 17
-35 21 -16 3 -29 10 -29 16 0 6 10 8 25 4 21 -5 27 -1 36 22 11 27 13 34 18
59 1 6 5 4 10 -4 8 -12 12 -12 25 -2 9 7 13 18 9 24 -3 6 -1 7 6 3 6 -4 9 -12
6 -17z m1982 -51 c-3 -8 -6 -5 -6 6 -1 11 2 17 5 13 3 -3 4 -12 1 -19z m5228
-8 c3 -5 1 -10 -4 -10 -6 0 -11 5 -11 10 0 6 2 10 4 10 3 0 8 -4 11 -10z m48
-20 c9 -11 13 -20 7 -20 -5 0 -14 9 -20 20 -6 11 -9 20 -8 20 2 0 11 -9 21
-20z m-4906 -106 c-3 -3 -12 -4 -19 -1 -8 3 -5 6 6 6 11 1 17 -2 13 -5z m2489
-151 c25 -16 28 -16 56 0 26 15 67 17 357 17 l327 0 36 -35 36 -35 4 -263 4
-262 123 -160 c131 -170 140 -183 124 -194 -6 -3 -46 -51 -91 -106 -109 -135
-136 -165 -147 -165 -13 0 -13 -6 -14 -302 l-2 -246 -27 -18 c-15 -9 -34 -26
-43 -36 -15 -17 -42 -18 -448 -18 -270 0 -431 4 -431 10 0 5 10 15 22 21 l23
12 -22 10 c-34 15 -56 2 -49 -28 6 -22 3 -25 -20 -25 -19 0 -25 4 -20 15 10
26 -25 31 -45 7 l-17 -22 -1224 0 -1223 0 -17 30 c-19 34 -38 32 -58 -6 l-13
-24 -345 0 -345 0 -38 35 c-22 19 -44 35 -49 35 -6 0 -10 49 -10 125 l0 125
35 0 c33 0 34 1 23 25 -10 23 -20 29 -40 26 -5 0 -8 41 -8 92 0 61 -5 101 -15
120 -8 15 -12 34 -9 42 4 9 -1 18 -12 22 -33 12 -63 40 -109 101 -48 66 -81
106 -107 131 -17 16 -17 19 0 48 16 29 75 107 189 252 l53 66 0 108 0 109 30
-7 c40 -9 40 10 0 33 l-30 17 0 137 0 136 38 31 37 30 1743 1 c1626 0 1744 -1
1768 -17z m2104 -363 c0 -5 -2 -10 -4 -10 -3 0 -8 5 -11 10 -3 6 -1 10 4 10 6
0 11 -4 11 -10z m-265 -141 c0 -8 -6 -13 -12 -11 -7 1 -13 -4 -13 -10 0 -7 -5
-5 -11 6 -9 14 -8 20 2 27 18 11 34 6 34 -12z m-99 -77 c-18 -16 -18 -16 -6 6
6 13 14 21 18 18 3 -4 -2 -14 -12 -24z m-29 -38 c-3 -3 -12 -4 -19 -1 -8 3 -5
6 6 6 11 1 17 -2 13 -5z m-180 -60 c-3 -3 -12 -4 -19 -1 -8 3 -5 6 6 6 11 1
17 -2 13 -5z m-303 -621 c37 -33 48 -43 41 -43 -4 0 8 -12 25 -26 17 -15 28
-29 25 -32 -3 -3 4 -15 16 -28 18 -19 19 -25 7 -43 -7 -12 -20 -21 -28 -21
-12 0 -13 -2 -1 -9 11 -7 9 -11 -8 -20 -12 -7 -27 -11 -34 -9 -21 4 -68 -12
-62 -22 3 -6 -1 -7 -10 -3 -12 4 -13 8 -5 13 7 4 10 12 6 18 -3 6 0 13 6 16 7
3 1 3 -14 0 -19 -4 -28 -2 -28 6 0 7 -7 10 -15 6 -8 -3 -15 -1 -15 4 0 6 -9
10 -20 10 -20 0 -83 57 -88 80 -2 7 0 25 3 39 20 86 131 122 199 64z m76 -248
c-6 -8 -9 -19 -5 -26 5 -8 1 -7 -15 1 l-23 13 24 13 c31 17 34 17 19 -1z m-45
-25 c3 -5 1 -10 -4 -10 -6 0 -11 5 -11 10 0 6 2 10 4 10 3 0 8 -4 11 -10z m15
-36 c0 -2 -9 -4 -21 -4 -11 0 -18 4 -14 10 5 8 35 3 35 -6z m-5900 -386 c0 -5
5 -8 11 -8 22 0 40 -30 37 -64 -1 -20 -4 -33 -7 -31 -2 3 -11 -3 -20 -13 -25
-27 -56 -50 -47 -33 5 8 -3 6 -20 -5 -15 -11 -25 -13 -21 -7 6 9 3 11 -7 7 -9
-3 -14 -9 -11 -13 2 -4 -6 -7 -18 -6 -12 1 -23 8 -23 16 -2 15 -3 25 -6 37 0
4 -7 12 -15 17 -8 6 -12 21 -9 35 2 14 5 38 5 53 l1 28 75 -3 c41 -2 75 -6 75
-10z"/>
<path d="M3783 7043 c-35 -58 -58 -112 -50 -119 3 -3 17 19 31 49 14 29 35 62
45 71 19 17 20 16 47 -29 15 -26 32 -63 39 -82 14 -39 31 -29 21 12 -10 40
-76 145 -91 145 -7 0 -26 -21 -42 -47z"/>
<path d="M3085 6969 c-269 -66 -645 -217 -645 -259 0 -14 23 -6 123 43 136 67
430 168 494 170 22 1 36 5 30 9 -9 5 69 22 107 23 22 0 83 -290 62 -299 -6 -2
-6 -5 -1 -5 6 0 16 3 24 8 12 8 12 19 2 73 -20 102 -53 232 -64 246 -13 16
-36 14 -132 -9z"/>
<path d="M4431 6968 c-18 -49 -62 -251 -59 -271 2 -12 16 39 31 113 16 74 33
139 38 145 31 32 507 -122 730 -236 47 -24 52 -9 7 19 -53 32 -227 108 -339
147 -102 36 -356 105 -385 105 -8 0 -18 -10 -23 -22z"/>
<path d="M3560 6920 c0 -11 8 -23 18 -26 78 -25 92 -37 137 -118 55 -100 59
-76 6 37 -36 74 -44 85 -86 105 -57 27 -75 28 -75 2z"/>
<path d="M4041 6929 c-51 -20 -80 -52 -115 -125 -21 -42 -35 -81 -33 -87 3
-11 20 18 65 109 9 20 32 40 59 53 52 25 53 25 53 4 0 -24 6 -13 13 25 7 35 0
38 -42 21z"/>
<path d="M3181 6905 c0 -11 4 -29 9 -40 l9 -20 0 20 c0 11 -4 29 -9 40 l-9 20
0 -20z"/>
<path d="M3000 6816 c-94 -28 -121 -42 -114 -61 5 -12 10 -13 32 -1 29 14 133
46 152 46 6 0 16 -13 21 -30 15 -43 43 -41 34 3 -10 43 -23 67 -38 66 -7 -1
-46 -11 -87 -23z"/>
<path d="M4547 6832 c-9 -13 -19 -82 -13 -82 4 0 11 11 16 25 5 14 17 25 27
25 17 0 145 -31 168 -41 6 -2 12 1 14 6 6 16 -203 83 -212 67z"/>
<path d="M2673 6702 c-29 -14 -53 -32 -53 -39 0 -19 14 -16 69 11 37 19 51 22
60 13 10 -9 12 -7 9 13 -4 33 -23 34 -85 2z"/>
<path d="M3220 6715 c0 -8 -17 -19 -42 -26 -24 -6 -70 -20 -103 -30 -90 -28
-100 -26 -114 22 -15 50 -25 45 -16 -9 13 -79 15 -80 158 -37 124 38 127 39
127 67 0 15 -2 28 -5 28 -3 0 -5 -7 -5 -15z"/>
<path d="M4897 6717 c-4 -10 12 -19 49 -31 29 -9 56 -21 59 -26 8 -13 25 -13
25 0 0 8 -109 70 -124 70 -2 0 -6 -6 -9 -13z"/>
<path d="M4420 6690 c0 -13 24 -22 149 -55 57 -15 106 -23 111 -19 4 5 11 25
14 44 l7 35 -16 -34 c-11 -25 -19 -32 -32 -26 -30 11 -215 65 -224 65 -5 0 -9
-5 -9 -10z"/>
<path d="M2490 6673 c0 -27 47 -143 58 -143 16 0 11 21 -23 98 -22 47 -35 64
-35 45z"/>
<path d="M2242 6615 c-97 -59 -152 -103 -152 -122 0 -12 7 -10 33 9 44 34 197
128 207 128 8 0 36 -69 32 -81 -1 -4 8 -5 18 -2 25 7 25 4 -5 63 -16 31 -32
50 -43 50 -9 0 -50 -20 -90 -45z"/>
<path d="M5127 6618 c-22 -54 -16 -60 8 -8 10 22 16 42 13 45 -3 3 -12 -14
-21 -37z"/>
<path d="M5299 6638 c-11 -21 -11 -22 4 -10 14 12 28 8 101 -32 47 -26 99 -58
116 -73 17 -14 33 -23 37 -20 6 7 -219 157 -235 157 -6 0 -17 -10 -23 -22z"/>
<path d="M2670 6621 c0 -21 52 -141 62 -141 5 0 7 8 4 18 -32 100 -43 126 -53
130 -7 2 -13 -1 -13 -7z"/>
<path d="M2407 6505 c-67 -41 -74 -42 -82 -15 -7 23 -25 26 -43 8 -21 -21 -14
-39 11 -33 15 4 28 1 36 -9 11 -13 22 -11 92 24 76 39 99 60 62 60 -10 -1 -44
-16 -76 -35z"/>
<path d="M5160 6531 c0 -9 24 -21 43 -21 6 0 2 7 -9 15 -22 17 -34 19 -34 6z"/>
<path d="M2563 6460 c-51 -27 -131 -75 -178 -105 -47 -30 -91 -55 -98 -55 -7
0 -36 39 -65 85 -46 72 -72 102 -72 80 0 -25 110 -205 126 -205 6 0 48 25 95
56 46 31 115 72 153 91 92 47 146 81 146 93 0 16 -10 12 -107 -40z"/>
<path d="M4990 6492 c0 -9 101 -54 108 -48 4 4 -91 56 -103 56 -3 0 -5 -4 -5
-8z"/>
<path d="M2633 6447 c-24 -11 -43 -25 -43 -29 0 -8 55 18 90 41 26 18 -3 11
-47 -12z"/>
<path d="M2220 6290 c12 -16 24 -30 26 -30 3 0 -4 14 -16 30 -12 17 -24 30
-26 30 -3 0 4 -13 16 -30z"/>
<path d="M1716 6219 c-48 -45 -100 -99 -117 -121 -61 -76 -19 -48 90 61 61 61
115 111 122 111 11 0 77 -64 157 -152 39 -44 69 -63 60 -38 -8 24 -195 220
-210 220 -9 0 -55 -37 -102 -81z"/>
<path d="M5794 6269 l-29 -31 35 21 c19 11 39 21 44 21 5 0 59 -48 120 -107
61 -60 90 -85 66 -58 -87 98 -177 185 -191 185 -9 0 -28 -14 -45 -31z"/>
<path d="M3653 6250 c-34 -17 -78 -49 -98 -72 -37 -41 -38 -41 -64 -24 -80 51
-131 66 -232 66 -112 0 -178 -19 -268 -78 -52 -35 -126 -117 -158 -176 -56
-105 -75 -247 -49 -373 16 -78 16 -82 -5 -128 -29 -65 -42 -166 -28 -219 6
-22 24 -61 40 -86 l28 -46 -24 -49 c-40 -77 -31 -187 20 -251 l22 -28 -28 -54
c-33 -62 -35 -80 -15 -147 14 -45 14 -50 -5 -73 -11 -15 -19 -40 -19 -63 0
-44 -8 -48 -36 -18 -25 28 -67 49 -97 49 -29 0 -47 -19 -82 -89 -58 -116 -28
-191 77 -191 l50 0 -31 -35 c-17 -19 -38 -60 -46 -90 -14 -47 -14 -59 -3 -82
10 -20 20 -27 37 -25 22 2 23 0 19 -42 -4 -29 -15 -57 -32 -77 -25 -29 -26
-33 -11 -48 25 -25 156 -20 220 9 28 12 60 23 71 24 34 2 93 54 118 104 33 66
39 102 26 171 -15 83 7 151 66 203 61 55 78 97 71 179 -4 53 -2 70 9 80 8 7
27 32 41 56 24 41 25 51 20 129 -2 46 -2 84 1 84 3 0 19 -12 35 -27 15 -16 57
-46 93 -68 54 -34 69 -49 89 -93 l24 -52 -49 -25 c-88 -45 -159 -157 -270
-427 -33 -81 -58 -129 -69 -133 -21 -6 -64 -136 -54 -163 3 -9 17 -29 31 -44
l25 -27 -23 -83 c-12 -46 -33 -110 -47 -143 -14 -33 -27 -82 -29 -110 -2 -48
-5 -52 -51 -82 -70 -46 -84 -46 -108 2 -16 32 -20 63 -21 160 -1 66 -2 123 -3
126 -2 13 -44 18 -63 8 -25 -14 -55 -77 -74 -156 -13 -52 -15 -95 -10 -185 6
-101 4 -122 -10 -143 -34 -52 25 -153 82 -142 24 4 37 -5 93 -63 74 -76 152
-124 227 -141 55 -12 94 -2 94 27 0 8 -35 49 -78 92 -42 42 -90 101 -105 130
l-28 52 28 34 c15 19 52 50 82 70 45 30 62 36 108 36 29 0 67 7 82 15 29 14
75 63 83 87 3 9 11 9 36 -1 l33 -14 -7 -76 c-3 -42 -12 -85 -19 -97 -7 -11
-16 -46 -20 -77 -7 -55 -6 -58 24 -84 40 -36 43 -84 6 -116 -21 -19 -26 -34
-31 -97 -5 -60 -3 -78 8 -88 12 -9 14 -33 10 -118 l-5 -106 44 -45 c69 -70
108 -86 211 -85 96 1 153 20 164 54 9 30 -4 100 -26 133 -26 39 -26 102 -1
129 13 14 21 44 25 93 6 64 5 74 -13 92 -12 12 -21 28 -21 37 0 24 19 54 34
54 8 0 24 8 37 19 20 16 23 29 26 97 3 119 17 189 35 178 6 -4 8 -41 3 -105
l-7 -99 31 -29 c37 -35 43 -84 11 -101 -17 -9 -20 -21 -20 -90 0 -65 3 -81 18
-89 14 -8 17 -26 18 -106 1 -67 6 -101 15 -110 19 -18 175 -82 233 -95 27 -6
76 -7 113 -4 84 9 103 26 103 93 0 42 -5 55 -32 83 -18 19 -43 41 -55 50 -13
8 -26 29 -29 47 -6 27 -3 33 15 38 12 3 24 15 27 27 8 34 -14 150 -31 162 -8
6 -15 26 -15 46 0 26 7 39 30 56 26 19 30 29 30 67 l0 45 48 0 c52 0 141 44
265 133 85 61 95 86 72 175 -10 37 -17 76 -16 87 7 75 3 94 -39 180 -34 68
-54 96 -82 114 l-36 23 24 35 c20 30 24 48 24 111 0 73 -1 76 -54 161 -29 47
-78 131 -109 187 -88 157 -134 214 -201 248 l-57 29 41 18 c23 10 54 28 70 39
15 11 31 20 34 20 3 0 17 -21 30 -47 13 -27 33 -57 45 -67 20 -18 23 -18 37
-4 9 8 26 53 40 99 21 73 24 103 24 255 0 163 1 174 26 230 24 55 26 68 25
199 -1 123 -4 143 -21 167 -11 15 -20 35 -20 45 0 16 -9 33 -42 78 -35 49
-100 110 -140 133 -26 15 -48 30 -48 34 0 14 -127 95 -198 126 -69 31 -78 32
-201 32 l-130 0 15 28 c17 32 17 145 1 217 -10 42 -16 50 -37 53 -14 2 -53
-11 -87 -28z m91 -32 c12 -60 15 -137 6 -170 -16 -58 -38 -75 -100 -81 -55 -5
-56 -4 -88 34 -30 36 -32 41 -23 76 15 54 62 107 123 137 64 32 76 32 82 4z
m-364 -51 c63 -23 110 -56 110 -78 0 -13 -41 -2 -55 15 -27 30 -64 40 -172 44
-87 3 -113 8 -113 18 0 18 180 19 230 1z m-117 -130 c59 -27 111 -76 126 -118
9 -27 7 -30 -57 -76 -46 -33 -75 -46 -92 -44 -40 5 -93 30 -122 58 -26 25 -70
113 -83 165 -8 30 -4 31 113 36 49 2 74 -2 115 -21z m277 -59 l20 -22 -62 -23
c-34 -12 -63 -21 -63 -20 -1 1 -7 15 -14 32 -11 25 -10 31 5 42 29 21 90 16
114 -9z m513 -54 c58 -31 67 -34 82 -34 9 0 18 -7 21 -15 4 -8 13 -15 20 -15
8 0 20 -5 27 -10 7 -6 23 -19 36 -30 l24 -20 -31 0 c-18 0 -43 10 -60 25 -17
14 -39 25 -50 25 -11 0 -22 7 -26 15 -3 9 -18 15 -40 15 -21 0 -36 6 -40 15
-4 12 -27 15 -115 15 -112 0 -145 5 -135 21 3 5 62 9 131 9 96 0 132 -4 156
-16z m-349 0 c28 -11 17 -21 -26 -27 -56 -7 -89 15 -37 24 19 4 37 7 41 8 3 0
13 -2 22 -5z m94 -51 c2 -8 -6 -13 -22 -13 -17 0 -26 5 -26 16 0 19 41 16 48
-3z m62 -33 c0 -5 -5 -10 -11 -10 -5 0 -7 5 -4 10 3 6 8 10 11 10 2 0 4 -4 4
-10z m464 -85 c3 -8 15 -15 26 -15 11 0 20 -7 20 -15 0 -8 7 -15 15 -15 8 0
15 -7 15 -15 0 -8 9 -20 20 -27 11 -7 20 -18 20 -25 0 -7 5 -13 10 -13 6 0 10
-7 10 -15 0 -8 5 -15 10 -15 6 0 10 -11 10 -24 0 -13 9 -35 20 -49 18 -22 20
-40 20 -158 0 -73 -2 -130 -5 -127 -3 3 -10 58 -15 122 -9 103 -13 121 -36
152 -19 24 -34 34 -54 34 -21 0 -31 8 -43 32 -15 31 -15 33 4 40 10 4 19 11
19 15 -1 13 -38 53 -49 53 -6 0 -11 5 -11 10 0 6 -7 10 -15 10 -9 0 -18 7 -21
15 -5 11 -24 15 -80 15 -68 0 -85 6 -67 23 3 4 43 7 89 7 63 0 83 -3 88 -15z
m-224 -176 c0 -52 -2 -60 -17 -57 -14 2 -19 15 -21 61 -3 52 -1 57 18 57 18 0
20 -6 20 -61z m259 -55 c12 -19 21 -37 21 -39 0 -2 -17 -9 -37 -14 -33 -9 -39
-8 -60 15 -22 24 -22 26 -7 49 24 37 58 32 83 -11z m-703 -14 c34 0 64 -18 64
-38 0 -25 -75 -31 -118 -9 -19 9 -23 17 -18 41 8 37 30 54 34 26 3 -16 11 -20
38 -20z m404 -21 c0 -11 -7 -22 -15 -25 -8 -4 -15 -10 -15 -16 0 -5 -7 -16
-15 -24 -13 -14 -15 -11 -15 22 0 25 7 42 21 55 25 21 39 17 39 -12z m200
-139 c25 -26 63 -60 84 -78 l40 -31 4 -199 c5 -223 7 -216 -72 -300 -73 -77
-164 -109 -341 -119 -118 -6 -186 5 -285 48 l-50 21 0 183 c0 100 3 185 8 189
4 4 7 12 7 18 0 6 18 16 40 23 22 6 63 24 92 38 34 18 68 27 98 27 48 0 67 18
46 44 -9 10 -3 19 28 41 62 43 138 128 168 189 l27 56 30 -52 c17 -29 51 -73
76 -98z m-322 116 c5 -26 -7 -34 -58 -38 -36 -2 -45 1 -48 15 -6 31 18 48 62
45 30 -2 42 -8 44 -22z m-528 -406 c0 -36 -3 -40 -24 -40 -37 0 -41 -18 -9
-37 24 -13 29 -23 31 -61 1 -25 4 -54 8 -64 7 -25 -21 -24 -64 2 -41 25 -62
73 -62 140 0 64 30 100 85 100 34 0 35 -1 35 -40z m1060 -146 c0 -74 -4 -113
-10 -109 -19 11 -12 225 7 225 2 0 3 -52 3 -116z m-800 -278 c0 -11 -19 -15
-25 -6 -3 5 1 10 9 10 9 0 16 -2 16 -4z m73 -82 c11 -14 74 -67 140 -119 108
-84 123 -93 134 -79 21 29 56 145 57 191 1 28 6 43 14 43 16 0 48 -70 57 -127
6 -41 6 -42 -26 -50 -18 -5 -36 -15 -39 -23 -4 -8 -17 -37 -29 -63 -12 -27
-25 -47 -29 -45 -71 34 -99 52 -107 70 -8 19 -19 23 -67 26 l-57 3 -35 57
c-19 31 -45 79 -57 105 -20 41 -21 49 -9 57 11 7 18 5 25 -6 6 -9 18 -27 28
-40z m134 20 c-3 -3 -12 -4 -19 -1 -8 3 -5 6 6 6 11 1 17 -2 13 -5z m343 -46
c10 -24 22 -65 25 -93 4 -27 16 -66 26 -87 10 -20 23 -55 28 -79 8 -36 7 -46
-10 -67 -10 -14 -19 -30 -19 -37 0 -18 -46 -32 -174 -54 -104 -18 -166 -19
-166 -1 0 4 15 13 33 20 52 20 111 52 124 67 6 9 17 12 24 7 8 -4 10 -3 5 4
-5 8 0 12 12 12 11 0 22 7 26 15 3 8 12 15 21 15 8 0 14 3 14 8 -5 32 37 62
54 38 5 -6 6 -2 2 9 -32 86 -45 134 -50 179 -2 29 -7 60 -11 69 -3 10 -1 17 5
17 7 0 20 -19 31 -42z m-246 15 l68 -6 -6 -43 c-7 -51 -31 -114 -44 -114 -12
0 -162 126 -179 150 -14 19 -12 20 39 20 29 0 84 -3 122 -7z m315 -14 c42 -39
221 -339 221 -370 0 -7 14 -28 31 -45 34 -35 48 -86 39 -144 l-5 -35 -13 44
c-25 82 -90 117 -187 101 -27 -4 -52 -6 -55 -3 -11 11 66 63 104 71 34 8 38
11 22 17 -12 5 -36 3 -62 -7 l-42 -15 -5 71 c-2 39 -12 91 -22 116 -18 48 -64
200 -65 213 0 13 16 7 39 -14z m-843 -70 c44 -27 70 -64 95 -136 22 -61 28
-175 11 -196 -6 -7 -25 -61 -42 -122 -18 -60 -37 -116 -43 -124 -22 -27 -168
10 -259 65 -27 16 -48 32 -48 36 0 14 120 298 155 367 31 63 79 131 92 131 3
0 21 -9 39 -21z m-758 -38 c20 -11 50 -33 66 -50 26 -27 28 -34 18 -56 -6 -14
-16 -25 -22 -25 -5 0 -10 -9 -10 -20 0 -21 -41 -34 -111 -34 -75 -1 -84 40
-34 152 27 58 37 62 93 33z m1492 -42 c0 -7 -34 -20 -63 -24 -10 -1 -16 3 -14
9 2 6 14 12 26 14 12 2 25 10 28 19 5 12 7 12 14 1 5 -7 9 -16 9 -19z m0 -23
c0 -2 -7 -7 -16 -10 -8 -3 -12 -2 -9 4 6 10 25 14 25 6z m-274 -43 c13 -15 41
-34 61 -43 l36 -16 -26 -17 c-15 -10 -47 -20 -71 -23 -42 -6 -44 -5 -73 37
-17 24 -35 54 -42 67 -11 21 -10 22 39 22 42 0 55 -5 76 -27z m281 12 c0 -8
-9 -15 -19 -15 -16 0 -17 2 -6 15 17 19 25 19 25 0z m-443 -11 c3 -8 2 -12 -4
-9 -6 3 -10 10 -10 16 0 14 7 11 14 -7z m356 -45 c0 -32 -7 -35 -33 -16 -16
11 -16 14 -2 35 20 28 35 20 35 -19z m-1253 11 c35 -28 98 -43 144 -35 44 8
45 6 24 -34 -23 -45 -82 -53 -152 -22 -47 22 -67 52 -59 87 8 29 11 29 43 4z
m1027 -164 c49 -70 83 -126 78 -122 -9 6 -157 220 -177 256 -20 37 18 -14 99
-134z m175 113 c45 -16 39 -36 -15 -44 -59 -8 -77 6 -43 34 13 11 24 20 25 21
1 0 15 -5 33 -11z m442 -186 c29 -17 34 -26 49 -74 14 -46 -6 -57 -24 -14 -9
21 -32 53 -52 71 -39 38 -24 47 27 17z m-87 -13 c55 -27 79 -63 84 -125 4 -46
1 -53 -28 -82 -59 -58 -153 -50 -194 16 -33 54 -37 70 -26 110 13 50 60 89
119 100 3 1 23 -8 45 -19z m-1125 -146 c39 -15 94 -29 134 -32 75 -5 71 2 42
-82 -11 -33 -15 -35 -59 -38 -25 -2 -74 4 -108 13 -76 19 -184 78 -193 104 -7
22 2 64 22 104 l14 28 41 -35 c22 -19 70 -47 107 -62z m702 79 c13 -16 12 -17
-3 -4 -17 13 -22 21 -14 21 2 0 10 -8 17 -17z m169 -105 c3 -27 3 -48 0 -48
-10 0 -31 41 -25 50 4 6 -5 14 -18 19 -43 17 -43 33 -1 29 38 -3 39 -4 44 -50z
m-219 -10 c11 -15 18 -39 19 -65 0 -41 2 -43 29 -43 27 0 47 -20 34 -34 -12
-12 -94 -6 -98 7 -6 19 -13 157 -8 157 3 0 13 -10 24 -22z m130 5 c13 -16 12
-17 -3 -4 -17 13 -22 21 -14 21 2 0 10 -8 17 -17z m541 -66 c23 -25 87 -172
88 -199 0 -9 -12 -30 -26 -45 -22 -25 -24 -25 -10 -3 9 13 16 33 16 43 0 18
-78 187 -86 187 -3 0 -37 -19 -77 -41 -40 -23 -89 -51 -110 -62 -27 -15 -36
-25 -31 -37 4 -8 15 -42 24 -75 35 -117 36 -118 78 -112 34 6 35 5 18 -8 -19
-15 -42 -15 -63 -2 -6 4 -23 45 -38 92 -19 62 -34 90 -56 109 -17 15 -26 26
-20 26 14 0 229 128 237 141 9 16 35 10 56 -14z m-931 -21 c-11 -13 -83 -63
-234 -160 -32 -21 -60 -36 -63 -33 -5 5 286 206 300 206 5 1 3 -5 -3 -13z
m-413 -56 c7 0 10 -5 7 -10 -4 -7 2 -9 18 -4 49 12 57 -4 36 -71 -16 -53 -17
-62 -4 -82 8 -12 19 -40 24 -63 8 -34 6 -42 -9 -50 -13 -7 -21 -5 -30 5 -22
27 -40 18 -40 -21 0 -19 4 -43 10 -53 23 -44 -78 -76 -140 -44 -44 23 -80 76
-80 120 0 18 11 59 24 91 13 31 34 91 45 132 12 41 24 80 26 86 2 8 20 4 52
-12 26 -13 54 -24 61 -24z m152 -35 c0 -16 -39 -60 -46 -52 -2 2 1 18 7 35 11
33 39 44 39 17z m-615 -62 c-16 -43 -26 -133 -21 -185 8 -71 34 -158 46 -158
5 0 15 -18 21 -40 7 -22 18 -45 26 -51 22 -19 14 -33 -34 -57 -25 -12 -47 -21
-48 -20 -10 11 -49 97 -52 113 -25 132 -26 167 -11 252 19 106 41 163 64 163
11 0 14 -5 9 -17z m1455 -34 c0 -6 -4 -7 -10 -4 -5 3 -10 11 -10 16 0 6 5 7
10 4 6 -3 10 -11 10 -16z m367 -83 c13 -43 13 -50 -3 -67 -26 -29 -40 -23 -64
28 l-22 47 27 24 c15 12 32 21 38 19 5 -1 17 -25 24 -51z m-945 -122 c50 -13
92 -15 208 -11 80 4 174 9 210 13 62 6 64 5 43 -11 -13 -9 -23 -22 -23 -30 0
-38 -408 -41 -488 -3 -26 13 -44 58 -24 58 6 0 39 -7 74 -16z m-642 -29 c0 -7
-91 -67 -96 -63 -2 3 15 18 39 35 40 30 57 38 57 28z m-130 -69 c0 -8 -6 -16
-14 -19 -17 -7 -30 20 -13 27 21 8 27 6 27 -8z m9 -55 c-15 -5 -22 6 -14 19 6
9 10 9 16 -1 5 -8 4 -15 -2 -18z m16 -21 c-3 -5 -10 -10 -16 -10 -5 0 -9 5 -9
10 0 6 7 10 16 10 8 0 12 -4 9 -10z m635 -110 c58 -13 221 -10 254 5 17 7 18
6 11 -11 -4 -10 -10 -33 -13 -51 -2 -17 -11 -35 -21 -38 -33 -13 -196 -17
-238 -6 -41 11 -43 13 -43 50 0 34 -4 40 -32 51 -18 8 -41 20 -50 28 -33 28
-18 32 30 8 26 -13 72 -29 102 -36z m715 4 c24 -22 26 -27 13 -40 -18 -18
-154 -47 -185 -39 -16 4 -23 13 -23 29 0 19 -7 26 -30 31 -52 11 -44 25 17 26
32 0 81 4 108 9 28 4 55 8 61 9 6 0 24 -11 39 -25z m-1295 -132 c12 -15 34
-39 48 -54 14 -15 23 -31 19 -34 -7 -7 -87 72 -87 86 0 6 -7 10 -15 10 -8 0
-15 -5 -15 -10 0 -6 7 -13 15 -16 8 -4 15 -10 15 -16 0 -15 -66 40 -104 87
l-36 43 32 20 31 20 37 -54 c20 -30 47 -67 60 -82z m1270 -17 c0 -40 -3 -47
-26 -55 -34 -13 -163 -13 -203 1 -28 10 -31 15 -31 50 l0 39 73 -6 c39 -3 92
-1 117 4 71 15 70 16 70 -33z m-730 10 c30 -8 89 -15 130 -15 l76 0 -4 -42
c-3 -24 -10 -46 -16 -50 -20 -14 -152 -8 -199 8 l-47 16 0 49 c0 27 1 49 3 49
1 0 27 -7 57 -15z m770 -83 c0 -11 -12 -24 -26 -30 -16 -8 -23 -8 -19 -2 4 7
-3 9 -22 5 -26 -5 -26 -4 4 7 18 7 38 19 45 26 16 16 18 15 18 -6z m-1160 -8
c0 -2 -11 -4 -25 -4 -14 0 -25 4 -25 9 0 4 11 6 25 3 14 -2 25 -6 25 -8z m624
-38 c-5 -13 -94 -40 -103 -31 -2 2 10 7 25 10 16 3 40 12 54 20 14 7 26 14 27
14 1 1 0 -5 -3 -13z m394 7 c-16 -2 -40 -2 -55 0 -16 2 -3 4 27 4 30 0 43 -2
28 -4z m-558 -33 l25 -8 -25 -1 c-14 0 -32 4 -40 9 -13 9 -13 10 0 9 8 -1 26
-5 40 -9z m727 -226 c5 -14 -44 -31 -74 -26 -12 2 -24 10 -27 18 -3 8 -2 13 2
11 4 -3 16 -1 27 4 27 11 68 7 72 -7z m-599 -71 c2 -7 -1 -13 -7 -13 -6 0 -11
5 -11 11 0 6 -8 8 -17 5 -10 -3 -24 -2 -31 3 -9 5 0 8 24 7 20 -1 39 -7 42
-13z"/>
<path d="M4235 5266 c-33 -9 -40 -16 -40 -36 0 -27 -2 -27 90 -13 37 6 51 13
53 27 7 35 -32 44 -103 22z"/>
<path d="M4223 5148 c-19 -20 -23 -36 -23 -85 0 -86 12 -113 49 -113 43 0 61
23 61 81 0 45 -2 49 -22 46 -35 -3 -31 35 5 44 29 8 28 8 44 -41 3 -10 10 -5
25 18 22 36 19 60 -9 62 -10 0 -38 3 -63 6 -39 5 -48 2 -67 -18z"/>
<path d="M3813 5121 c-17 -5 -45 -20 -62 -34 -17 -14 -36 -27 -43 -30 -10 -3
-8 -10 6 -26 22 -24 46 -28 46 -6 0 8 9 19 20 25 19 10 20 8 20 -50 0 -82 11
-100 60 -100 49 0 56 12 63 112 4 63 2 79 -11 91 -23 21 -60 27 -99 18z m93
-72 c3 -6 0 -17 -7 -25 -18 -17 -44 -2 -36 20 7 18 33 21 43 5z"/>
<path d="M4131 4810 c-27 -23 -100 -27 -131 -8 -24 15 -38 3 -24 -20 33 -52
194 -24 194 34 0 19 -10 17 -39 -6z"/>
<path d="M3290 3679 c0 -5 5 -7 10 -4 6 3 10 8 10 11 0 2 -4 4 -10 4 -5 0 -10
-5 -10 -11z"/>
<path d="M4565 3490 c-9 -14 13 -50 30 -50 16 0 19 18 9 44 -7 18 -30 21 -39
6z"/>
<path d="M5232 6178 c-38 -57 -71 -111 -75 -120 -3 -9 7 -65 23 -125 15 -59
27 -109 26 -111 -2 -1 -35 5 -75 14 -97 22 -103 17 -96 -90 4 -44 8 -90 10
-102 6 -26 126 -99 191 -115 45 -12 48 -11 70 14 12 14 24 31 26 37 2 8 11 8
33 0 24 -9 33 -8 57 10 l28 20 20 -20 c31 -31 55 -19 134 63 68 71 68 71 62
117 -3 25 -12 67 -19 95 -14 58 -33 67 -76 36 -16 -12 -34 -21 -40 -21 -7 0
-11 37 -11 110 l0 111 -92 89 c-51 49 -101 90 -110 90 -11 0 -43 -38 -86 -102z
m177 -4 l81 -76 0 -127 c0 -113 -2 -130 -19 -145 -14 -13 -20 -38 -26 -101 -6
-73 -10 -86 -30 -99 -32 -21 -64 -20 -72 2 -14 43 -56 130 -77 162 -22 32 -53
136 -44 145 2 2 12 -22 22 -54 18 -56 19 -58 37 -43 13 11 19 29 18 52 -3 72
-12 94 -54 117 -21 12 -42 20 -46 17 -4 -2 -9 2 -12 9 -5 14 120 217 133 217
5 0 45 -34 89 -76z m-190 -214 c0 -9 -4 -8 -9 5 -5 11 -9 27 -9 35 0 9 4 8 9
-5 5 -11 9 -27 9 -35z m411 -144 l13 -75 -58 -65 c-57 -65 -87 -81 -99 -50 -8
20 -8 89 0 145 6 41 11 48 63 82 31 20 59 37 62 37 3 0 12 -34 19 -74z m-475
-16 c33 -7 69 -18 80 -25 12 -7 33 -44 49 -83 26 -66 26 -72 12 -106 -11 -27
-19 -34 -33 -30 -56 18 -83 30 -130 58 -56 33 -56 33 -68 149 -5 53 -4 58 12
53 10 -2 45 -10 78 -16z"/>
<path d="M5110 5660 c-16 -10 -15 -11 42 -14 31 -2 36 0 27 11 -13 15 -47 17
-69 3z"/>
<path d="M5160 5621 c8 -6 18 -7 22 -5 5 3 7 0 6 -7 -2 -6 12 -18 31 -26 l33
-14 -23 30 c-17 21 -33 30 -54 30 -22 1 -26 -2 -15 -8z"/>
<path d="M2327 6263 c-4 -3 -24 -9 -44 -13 -37 -6 -37 -6 -10 -12 19 -4 35 0
50 13 12 10 19 18 16 19 -3 0 -9 -3 -12 -7z"/>
<path d="M4220 6220 c0 -22 2 -40 4 -40 2 0 6 18 8 40 2 22 0 40 -4 40 -5 0
-8 -18 -8 -40z"/>
<path d="M1750 6115 c-38 -38 -51 -58 -44 -65 8 -8 22 1 47 30 21 22 44 40 53
40 8 0 13 -4 10 -9 -3 -4 19 -32 49 -60 30 -29 55 -50 55 -46 0 3 7 -1 16 -9
17 -17 34 -21 34 -7 0 18 -144 181 -160 181 -3 0 -30 -25 -60 -55z"/>
<path d="M5814 6138 l-19 -23 25 20 c14 11 27 21 29 22 2 2 0 3 -6 3 -5 0 -18
-10 -29 -22z"/>
<path d="M4728 6123 c6 -2 18 -2 25 0 6 3 1 5 -13 5 -14 0 -19 -2 -12 -5z"/>
<path d="M2680 6077 c0 -29 5 -49 14 -54 8 -4 16 -26 20 -48 3 -22 5 -41 6
-42 0 -2 10 -3 23 -3 20 1 20 2 5 11 -12 6 -18 22 -18 44 0 21 -6 37 -16 43
-9 5 -17 26 -20 47 -5 55 -14 56 -14 2z"/>
<path d="M1767 6044 c-3 -4 3 -18 14 -32 l19 -25 -27 -19 c-16 -10 -32 -18
-38 -18 -5 0 -30 21 -56 46 -45 45 -46 45 -51 21 -4 -19 6 -36 45 -76 53 -55
58 -56 102 -3 15 17 33 32 41 32 20 0 17 23 -7 54 -21 26 -31 31 -42 20z"/>
<path d="M4143 6033 c-16 -6 -17 -39 -1 -49 7 -4 8 -3 4 5 -4 6 -2 19 5 27 13
16 10 23 -8 17z"/>
<path d="M5975 5990 c-34 -34 -56 -49 -68 -46 -15 4 -16 2 -6 -10 13 -16 15
-15 82 46 25 22 53 60 44 60 -1 0 -25 -23 -52 -50z"/>
<path d="M1846 5918 c-37 -40 -62 -74 -57 -76 10 -3 141 127 141 141 0 19 -24
1 -84 -65z"/>
<path d="M4640 5955 c0 -14 2 -25 4 -25 2 0 6 11 8 25 3 14 1 25 -3 25 -5 0
-9 -11 -9 -25z"/>
<path d="M1593 5936 c-4 -7 -19 -19 -32 -25 -16 -9 -20 -16 -13 -23 12 -12 84
40 76 54 -8 12 -22 10 -31 -6z"/>
<path d="M6145 5936 c-25 -11 -37 -29 -67 -105 -21 -51 -38 -105 -38 -122 0
-19 -5 -29 -15 -29 -17 0 -105 -168 -105 -199 0 -11 -9 -25 -19 -31 -11 -5
-45 -59 -76 -120 l-56 -110 28 -51 c32 -60 57 -75 201 -118 95 -28 106 -29
127 -15 21 14 23 13 29 -9 8 -32 238 -159 272 -151 15 4 23 0 26 -14 9 -32
166 -85 258 -86 l75 -1 49 100 c34 69 49 111 48 136 -1 27 4 38 17 42 11 2 57
83 126 220 l108 215 -27 56 c-30 60 -64 86 -114 86 -24 0 -32 -6 -42 -31 -13
-30 -14 -30 -62 -24 -39 6 -53 4 -68 -10 -19 -17 -20 -17 -26 1 -12 39 -22 48
-129 106 -149 82 -182 94 -207 79 -16 -10 -24 -8 -47 11 -15 13 -46 30 -68 37
l-41 14 16 33 c14 31 14 35 -2 53 -33 36 -127 57 -171 37z m115 -36 c3 -3 12
-9 21 -12 13 -5 -11 -60 -126 -295 -78 -158 -153 -312 -166 -341 -20 -48 -52
-89 -36 -50 11 30 -53 66 -94 53 -11 -4 -24 -16 -28 -28 -5 -12 -10 -16 -14
-10 -6 10 60 148 87 182 6 8 28 27 49 42 35 26 37 28 19 38 -19 10 -17 14 24
94 29 57 51 86 65 90 18 5 20 11 15 33 -9 33 46 180 76 206 16 14 30 16 62 11
22 -3 43 -9 46 -13z m108 -146 c17 -7 32 -20 32 -29 0 -24 25 -28 59 -11 30
16 32 16 147 -45 156 -81 154 -80 154 -112 0 -36 24 -45 65 -23 36 20 101 14
91 -7 -2 -7 -18 -44 -34 -83 -33 -79 -151 -306 -191 -369 -42 -65 -50 -78 -71
-117 -19 -36 -19 -36 0 -61 11 -13 17 -26 15 -29 -13 -13 39 -41 78 -42 38 -1
42 1 45 25 2 17 -6 37 -24 58 -24 28 -31 32 -61 26 -34 -6 -43 4 -19 24 8 7
22 26 31 44 9 18 34 61 55 97 59 98 141 262 195 388 26 62 54 112 61 112 29 0
62 -24 78 -56 22 -47 20 -63 -11 -126 -31 -63 -67 -100 -89 -91 -13 5 -16 -1
-13 -33 3 -48 -6 -83 -42 -155 -21 -42 -35 -58 -55 -63 -24 -6 -26 -10 -21
-43 5 -29 -2 -56 -35 -129 -25 -59 -48 -96 -59 -99 -25 -8 -114 11 -190 40
-72 29 -89 41 -89 66 0 26 -19 33 -40 14 -17 -16 -24 -13 -129 42 -72 38 -112
65 -115 78 -3 11 -12 29 -20 40 -14 20 -15 20 -40 -4 l-26 -24 -110 33 c-110
33 -143 51 -119 66 7 4 10 3 6 -2 -3 -5 18 -9 46 -9 l52 1 29 54 c21 41 27 47
22 25 -6 -30 -6 -30 13 5 10 19 21 46 25 60 7 24 6 24 -9 -2 -22 -39 -28 -35
-8 7 9 19 20 32 25 29 7 -5 12 10 9 29 -2 11 16 50 115 255 94 192 83 182 172
146z"/>
<path d="M6298 5654 c-26 -14 -28 -19 -28 -82 0 -49 5 -73 18 -90 l18 -24 52
41 c49 39 52 44 52 86 0 75 -48 104 -112 69z m72 -49 c10 -12 10 -18 0 -30 -7
-8 -18 -15 -25 -15 -7 0 -18 7 -25 15 -10 12 -10 18 0 30 7 8 18 15 25 15 7 0
18 -7 25 -15z"/>
<path d="M6550 5562 c0 -12 19 -26 26 -19 2 2 -2 10 -11 17 -9 8 -15 8 -15 2z"/>
<path d="M6560 5455 c0 -8 5 -15 10 -15 6 0 10 7 10 15 0 8 -4 15 -10 15 -5 0
-10 -7 -10 -15z"/>
<path d="M6520 5419 c0 -5 5 -7 10 -4 6 3 10 8 10 11 0 2 -4 4 -10 4 -5 0 -10
-5 -10 -11z"/>
<path d="M6770 5409 c0 -5 5 -7 10 -4 6 3 10 8 10 11 0 2 -4 4 -10 4 -5 0 -10
-5 -10 -11z"/>
<path d="M6475 5369 c-4 -6 -5 -12 -2 -15 2 -3 7 2 10 11 7 17 1 20 -8 4z"/>
<path d="M6234 5335 c-5 -11 -14 -15 -29 -11 -42 11 -115 -37 -115 -75 0 -20
18 -8 24 16 4 16 13 25 25 25 11 0 26 7 34 15 12 11 16 12 20 2 3 -9 11 -8 33
4 16 9 35 14 43 11 8 -3 12 1 9 9 -7 21 -37 23 -44 4z"/>
<path d="M6445 5309 c-11 -17 1 -21 15 -4 8 9 8 15 2 15 -6 0 -14 -5 -17 -11z"/>
<path d="M6276 5301 c-3 -5 1 -11 9 -15 8 -3 15 -1 15 4 0 13 -18 22 -24 11z"/>
<path d="M6440 5268 c0 -9 5 -20 11 -23 17 -11 18 -2 3 19 -12 17 -14 17 -14
4z"/>
<path d="M6315 5251 c9 -29 -2 -59 -26 -66 -11 -4 -18 -9 -15 -12 3 -3 17 2
31 11 26 17 35 68 14 82 -8 4 -9 0 -4 -15z"/>
<path d="M6641 5253 c9 -15 23 -23 39 -22 21 1 21 2 5 6 -11 3 -29 12 -39 22
-18 15 -18 15 -5 -6z"/>
<path d="M6087 5215 c-3 -7 2 -24 13 -37 l18 -23 36 19 c30 16 38 17 51 6 13
-11 19 -11 32 2 14 14 11 16 -32 20 -35 2 -50 -1 -62 -14 -20 -22 -43 -7 -36
22 6 23 -12 27 -20 5z"/>
<path d="M6475 5220 c-3 -5 -1 -10 4 -10 6 0 11 5 11 10 0 6 -2 10 -4 10 -3 0
-8 -4 -11 -10z"/>
<path d="M6500 5191 c0 -11 31 -24 39 -16 3 3 -1 10 -9 15 -19 12 -30 12 -30
1z"/>
<path d="M6570 5145 c7 -8 17 -15 22 -15 5 0 3 7 -6 15 -8 8 -18 15 -22 15 -3
0 -1 -7 6 -15z"/>
<path d="M6586 5095 c-14 -21 -14 -25 -2 -25 8 0 18 9 21 21 10 31 0 33 -19 4z"/>
<path d="M6315 5080 c-3 -6 1 -13 10 -16 21 -9 26 -2 10 13 -9 8 -16 9 -20 3z"/>
<path d="M6485 5070 c-3 -5 3 -10 14 -10 12 0 21 5 21 10 0 6 -6 10 -14 10 -8
0 -18 -4 -21 -10z"/>
<path d="M6390 5050 c0 -5 9 -10 20 -10 11 0 20 5 20 10 0 6 -9 10 -20 10 -11
0 -20 -4 -20 -10z"/>
<path d="M6440 5040 c0 -5 5 -10 10 -10 6 0 10 5 10 10 0 6 -4 10 -10 10 -5 0
-10 -4 -10 -10z"/>
<path d="M915 5898 c-78 -46 -105 -140 -65 -224 22 -44 50 -69 94 -80 33 -8
33 -14 -5 -50 -74 -70 -125 -239 -108 -359 23 -161 138 -294 305 -351 76 -26
242 -16 315 18 140 65 237 211 253 384 8 80 -9 159 -51 237 -31 55 -116 138
-174 168 -56 28 -154 49 -234 49 l-71 0 4 41 c6 57 -22 124 -65 156 -50 39
-141 43 -198 11z m162 -28 c40 -24 60 -55 65 -100 4 -49 -15 -52 -30 -5 -17
53 -54 85 -98 85 -79 0 -127 -57 -104 -124 6 -19 20 -38 31 -41 30 -10 24 -37
-8 -33 -34 4 -67 57 -65 104 4 106 120 169 209 114z m-37 -75 c38 -20 38 -30
-2 -44 -17 -6 -40 -19 -50 -28 -15 -13 -20 -14 -33 -3 -23 19 -15 62 15 77 32
16 35 16 70 -2z m68 -87 c7 -7 12 -17 12 -24 0 -16 -56 -38 -71 -28 -8 4 -10
3 -5 -4 11 -18 -10 -14 -28 4 -21 21 -20 30 6 48 27 19 69 21 86 4z m254 -59
c199 -43 342 -241 303 -421 -13 -59 -19 -78 -43 -126 -20 -39 -97 -119 -123
-127 -11 -4 -19 -10 -19 -14 0 -25 -179 -52 -252 -39 -70 13 -177 65 -211 102
-70 75 -127 186 -127 244 0 13 -5 33 -11 44 -8 15 -8 22 0 28 6 3 13 20 16 36
5 43 42 112 88 167 82 98 225 138 379 106z"/>
<path d="M1173 5596 c-142 -46 -232 -172 -221 -310 11 -126 77 -218 201 -277
115 -54 267 -33 358 49 83 74 119 168 101 263 -22 119 -86 205 -191 256 -64
32 -182 41 -248 19z m170 -51 c170 -44 269 -202 224 -356 -57 -195 -330 -252
-495 -104 -162 146 -107 395 100 460 57 18 102 18 171 0z"/>
<path d="M1135 5500 c-4 -6 1 -23 11 -38 10 -15 19 -21 21 -15 3 7 11 9 19 6
17 -6 17 -2 2 32 -11 25 -41 34 -53 15z"/>
<path d="M1340 5501 c0 -5 -22 -37 -50 -71 -86 -108 -89 -116 -95 -233 -3 -68
-1 -108 5 -112 6 -4 8 -15 5 -26 -4 -11 -2 -19 4 -19 6 0 11 6 11 14 0 8 13
28 30 46 16 17 49 58 73 90 l44 58 7 121 c4 67 4 125 1 131 -8 12 -35 13 -35
1z m-15 -97 c-15 -36 -30 -53 -47 -54 -15 0 -8 17 23 59 36 51 46 48 24 -5z
m-13 -98 c13 -31 5 -56 -20 -56 -24 0 -42 19 -42 46 0 39 45 46 62 10z m-52
-81 c0 -20 -22 -65 -32 -65 -10 0 -11 64 -1 73 12 12 33 7 33 -8z"/>
<path d="M1473 5380 c-24 -10 -30 -25 -13 -35 13 -8 72 24 65 35 -7 12 -22 12
-52 0z"/>
<path d="M1016 5351 c-7 -11 22 -23 35 -15 5 3 7 10 4 15 -8 12 -32 12 -39 0z"/>
<path d="M1500 5200 c0 -5 9 -10 21 -10 11 0 17 5 14 10 -3 6 -13 10 -21 10
-8 0 -14 -4 -14 -10z"/>
<path d="M1053 5188 c-23 -11 -32 -38 -13 -38 21 0 71 31 65 40 -8 12 -24 12
-52 -2z"/>
<path d="M1370 5096 c0 -8 9 -24 19 -37 17 -21 20 -22 26 -7 4 9 2 26 -5 37
-12 24 -40 28 -40 7z"/>
<path d="M4610 5901 c0 -5 -3 -17 -7 -27 -5 -14 -2 -13 15 4 26 26 27 32 7 32
-8 0 -15 -4 -15 -9z"/>
<path d="M4570 5840 c0 -5 5 -10 10 -10 6 0 10 5 10 10 0 6 -4 10 -10 10 -5 0
-10 -4 -10 -10z"/>
<path d="M4550 5800 c0 -11 5 -20 11 -20 6 0 8 -9 4 -20 -5 -14 -2 -20 9 -20
9 0 16 -4 16 -10 0 -5 -9 -10 -20 -10 -11 0 -20 -6 -20 -14 0 -10 11 -12 44
-9 55 7 96 -3 96 -21 0 -16 35 -24 70 -16 22 5 23 7 7 13 -10 4 -16 10 -13 15
8 13 -6 27 -46 45 -21 10 -38 20 -38 23 0 3 5 2 12 -2 7 -4 8 -3 4 4 -4 7 -20
12 -36 12 -15 0 -30 7 -34 15 -3 8 -12 15 -21 15 -8 0 -15 5 -15 10 0 6 -7 10
-15 10 -8 0 -15 -9 -15 -20z"/>
<path d="M5667 5538 c-6 -22 8 -58 22 -58 5 0 15 7 22 16 11 14 11 18 -4 29
-9 7 -17 17 -17 24 0 20 -17 12 -23 -11z"/>
<path d="M1706 5511 c-4 -7 -5 -15 -2 -18 9 -9 19 4 14 18 -4 11 -6 11 -12 0z"/>
<path d="M5645 5490 c3 -5 8 -10 11 -10 2 0 4 5 4 10 0 6 -5 10 -11 10 -5 0
-7 -4 -4 -10z"/>
<path d="M5732 5044 l-27 -23 25 -1 c17 0 21 3 12 9 -11 7 -11 9 2 14 11 5 16
1 16 -13 0 -11 5 -20 10 -20 6 0 10 5 10 10 0 17 30 11 37 -7 5 -14 7 -13 14
5 6 15 14 20 26 16 10 -3 5 3 -12 12 -44 26 -82 26 -113 -2z"/>
<path d="M5825 4980 c-3 -5 -1 -10 4 -10 6 0 11 5 11 10 0 6 -2 10 -4 10 -3 0
-8 -4 -11 -10z"/>
<path d="M6857 4801 c-4 -17 -3 -21 5 -13 5 5 8 16 6 23 -3 8 -7 3 -11 -10z"/>
<path d="M3300 4699 c0 -51 -25 -114 -54 -138 -11 -10 -15 -31 -14 -84 2 -86
-19 -134 -83 -191 -48 -45 -62 -86 -53 -165 l7 -53 47 113 c98 237 181 374
256 420 30 18 32 22 23 49 -7 19 -30 40 -70 64 l-59 35 0 -50z"/>
<path d="M4295 4629 c-4 -6 -5 -11 -4 -12 2 -1 14 -8 27 -15 22 -12 27 -6 16
22 -7 18 -30 21 -39 5z"/>
<path d="M6657 4110 c-39 -12 -57 -29 -57 -53 0 -21 0 -21 20 1 29 31 82 38
119 16 16 -10 28 -21 26 -24 -5 -9 46 -33 53 -26 8 9 -17 33 -66 66 -49 32
-52 33 -95 20z"/>
<path d="M6687 3993 c-4 -3 -7 -13 -7 -22 0 -13 9 -15 46 -13 32 3 50 -1 63
-12 19 -17 33 -10 42 22 3 9 14 5 38 -12 45 -33 63 -21 24 15 -29 25 -38 27
-115 28 -47 1 -88 -2 -91 -6z"/>
<path d="M6616 3973 c-3 -3 -6 -58 -6 -122 1 -113 1 -115 15 -76 8 22 15 75
15 117 0 71 -8 97 -24 81z"/>
<path d="M6687 3917 c-11 -28 -9 -135 3 -117 8 12 11 12 27 -2 26 -22 54 -29
87 -20 48 13 40 27 -11 24 -64 -4 -81 10 -91 78 -5 38 -10 49 -15 37z"/>
<path d="M6734 3908 c-10 -15 41 -58 69 -58 20 0 20 2 -8 25 -16 13 -24 24
-17 25 7 0 10 5 7 10 -8 14 -42 13 -51 -2z"/>
<path d="M6886 3912 c-2 -4 11 -24 30 -44 36 -40 56 -35 28 7 -19 29 -50 49
-58 37z"/>
<path d="M4784 3863 c3 -21 14 -26 41 -19 37 9 31 31 -9 32 -22 0 -33 -4 -32
-13z"/>
<path d="M5130 3851 c0 -18 18 -21 30 -6 10 13 9 15 -9 15 -11 0 -21 -4 -21
-9z"/>
<path d="M5268 3799 c-22 -23 -86 -26 -94 -4 -6 16 -44 21 -44 7 0 -20 42 -45
82 -48 47 -5 85 17 85 49 0 21 -7 21 -29 -4z"/>
<path d="M6630 3743 c0 -7 11 -13 24 -13 36 0 41 17 6 22 -20 3 -30 0 -30 -9z"/>
<path d="M5207 3645 c-19 -20 -24 -32 -18 -52 6 -21 28 -37 111 -79 58 -30
110 -54 116 -54 6 0 21 -9 34 -20 13 -11 31 -20 42 -20 10 0 18 -6 18 -14 0
-7 6 -19 14 -25 8 -7 17 -35 21 -62 4 -28 9 -48 12 -45 10 9 12 116 2 116 -5
0 -9 6 -9 13 -1 24 -48 56 -196 132 -82 42 -148 79 -147 83 2 4 10 15 19 25
24 29 10 30 -19 2z"/>
<path d="M6620 3645 c0 -6 20 -16 45 -23 37 -10 52 -9 79 2 57 24 47 31 -40
32 -56 0 -84 -3 -84 -11z"/>
<path d="M5470 3595 c0 -29 13 -38 41 -30 31 10 21 47 -13 51 -24 2 -28 -1
-28 -21z"/>
<path d="M4825 3510 c-3 -5 1 -10 9 -10 9 0 16 5 16 10 0 6 -4 10 -9 10 -6 0
-13 -4 -16 -10z"/>
<path d="M4868 3491 c8 -4 13 -11 13 -15 -1 -3 1 -6 4 -6 3 0 5 2 5 5 0 3 0
10 0 15 0 6 -8 10 -17 10 -14 0 -15 -2 -5 -9z"/>
<path d="M4921 3461 c-10 -7 -10 -10 -1 -16 7 -4 15 -3 19 3 4 6 15 3 29 -9
13 -10 21 -23 18 -28 -3 -5 6 -12 20 -15 31 -8 44 -1 16 8 -14 5 -18 13 -15
27 5 18 2 20 -14 15 -12 -4 -25 -1 -33 9 -14 17 -20 18 -39 6z"/>
<path d="M4802 3441 c-6 -3 -11 -29 -13 -57 -4 -44 -2 -50 14 -46 9 2 23 0 30
-6 24 -20 35 1 30 55 -5 44 -9 52 -29 56 -12 2 -27 1 -32 -2z m28 -30 c0 -23
-16 -36 -25 -21 -9 14 1 40 15 40 5 0 10 -9 10 -19z"/>
<path d="M6579 3430 c-6 -4 -25 -59 -41 -121 -33 -129 -109 -338 -174 -480
-44 -97 -51 -119 -35 -119 4 0 53 -25 109 -55 55 -30 116 -62 136 -70 35 -15
36 -15 51 15 9 17 13 35 10 40 -3 5 7 39 21 75 18 45 29 62 35 54 5 -10 16 4
34 44 14 32 25 62 25 67 0 9 -150 70 -173 70 -13 0 -77 -134 -77 -160 0 -22
17 -8 34 27 14 29 20 34 27 22 8 -12 12 -11 25 6 14 18 13 20 -6 23 -14 2 -20
9 -16 19 3 8 6 17 6 19 0 2 5 4 11 4 5 0 8 -4 5 -9 -3 -5 17 -18 44 -30 28
-12 50 -23 50 -24 0 -2 -45 -109 -77 -184 -3 -7 -8 -13 -12 -14 -3 0 -50 21
-103 48 -74 36 -97 52 -94 65 2 9 -1 19 -7 21 -7 2 1 32 22 81 22 49 39 75 47
72 14 -5 34 38 74 167 16 48 24 87 19 87 -5 0 -9 -9 -9 -20 0 -11 -5 -20 -11
-20 -6 0 -8 8 -5 18 3 9 10 36 16 59 7 30 15 41 25 37 9 -4 17 6 24 33 6 21
11 44 11 52 0 11 10 12 48 6 26 -5 63 -9 84 -9 20 -1 34 -5 31 -10 -3 -4 5 -5
17 -1 15 5 20 4 16 -4 -4 -6 0 -11 8 -11 9 0 16 -3 16 -7 -1 -22 -61 -248 -67
-253 -15 -13 -73 10 -73 28 0 9 12 49 26 89 15 40 24 79 21 88 -9 22 -67 20
-67 -2 0 -10 -13 -64 -29 -121 -27 -97 -28 -103 -10 -112 24 -14 52 -13 43 1
-4 7 0 9 12 6 11 -3 35 -9 55 -12 l37 -7 23 74 c20 66 23 70 29 43 l6 -30 7
30 c4 17 13 64 21 105 8 41 17 87 21 102 6 25 4 27 -49 42 -95 28 -234 53
-247 46z m83 -339 c-5 -3 -14 -15 -21 -26 l-12 -20 5 20 c3 11 11 43 18 70
l13 50 3 -44 c2 -24 -1 -47 -6 -50z m-142 5 c0 -3 -4 -8 -10 -11 -5 -3 -10 -1
-10 4 0 6 5 11 10 11 6 0 10 -2 10 -4z"/>
<path d="M5071 3334 c0 -6 -31 -26 -68 -45 -38 -19 -102 -55 -143 -80 -41 -25
-85 -49 -97 -53 -13 -4 -23 -12 -23 -17 0 -5 -4 -9 -9 -9 -12 0 -66 -25 -120
-55 -24 -14 -50 -25 -57 -25 -6 0 -14 -6 -17 -13 -8 -22 -72 -36 -118 -26 -33
8 -46 7 -57 -5 -13 -13 -10 -16 24 -25 68 -19 94 -13 213 51 64 33 159 83 211
111 52 27 113 60 135 72 147 82 138 75 132 106 -2 13 -5 19 -6 13z"/>
<path d="M4770 3310 c0 -14 29 -32 40 -25 17 11 11 22 -15 27 -14 3 -25 2 -25
-2z"/>
<path d="M2248 3276 c-6 -30 1 -40 30 -44 33 -5 41 27 13 50 -30 24 -38 23
-43 -6z"/>
<path d="M4725 3265 c-22 -18 -26 -24 -13 -25 9 0 20 5 23 10 4 6 10 8 15 5
12 -8 24 15 13 26 -5 5 -21 -2 -38 -16z"/>
<path d="M5500 3240 c-18 -15 -19 -20 -7 -20 14 0 47 25 47 36 0 10 -19 3 -40
-16z"/>
<path d="M3144 3175 c-28 -14 -32 -22 -37 -68 -3 -29 -1 -56 4 -62 5 -5 30
-14 56 -21 40 -10 53 -10 83 5 32 15 35 20 38 67 2 40 -1 54 -17 68 -27 25
-89 30 -127 11z m104 -17 c7 -7 12 -25 12 -42 0 -57 -63 -93 -68 -39 -1 15 -8
31 -15 35 -6 5 -19 13 -27 18 -13 9 -12 12 4 25 24 18 77 20 94 3z"/>
<path d="M5312 3164 c-10 -7 -13 -16 -8 -21 5 -4 11 -2 13 5 3 6 13 12 24 12
10 0 19 4 19 8 0 13 -28 10 -48 -4z"/>
<path d="M5378 3153 c6 -2 18 -2 25 0 6 3 1 5 -13 5 -14 0 -19 -2 -12 -5z"/>
<path d="M6371 3119 c-6 -18 -9 -34 -7 -36 2 -2 9 10 16 27 7 17 10 33 8 36
-3 3 -11 -9 -17 -27z"/>
<path d="M5274 3086 c-16 -14 -24 -25 -19 -25 15 -1 61 37 54 44 -4 3 -20 -5
-35 -19z"/>
<path d="M5107 3043 c-4 -3 -7 -19 -7 -35 0 -15 -4 -28 -10 -28 -6 0 -6 -9 0
-25 5 -14 9 -29 8 -33 -1 -4 1 -17 6 -29 6 -19 16 -23 49 -25 102 -4 110 0
101 65 -6 44 -9 47 -35 47 -24 0 -29 4 -29 25 0 34 -60 61 -83 38z m53 -57 c0
-25 -5 -48 -10 -51 -6 -4 -8 -11 -5 -16 4 -5 2 -9 -3 -9 -12 0 -22 35 -22 83
0 30 4 37 20 37 17 0 20 -7 20 -44z m78 -53 c-2 -17 -10 -29 -20 -31 -14 -3
-18 3 -18 27 0 25 4 31 21 31 16 0 20 -5 17 -27z"/>
<path d="M5025 2952 c-16 -8 -36 -21 -43 -29 -7 -7 -20 -13 -28 -13 -8 0 -14
-4 -14 -10 0 -15 6 -13 76 21 36 16 62 34 59 40 -8 11 -13 11 -50 -9z"/>
<path d="M5210 2802 c0 -7 4 -11 9 -8 5 4 11 2 13 -2 1 -5 19 -12 38 -15 20
-4 29 -3 22 1 -7 5 -10 15 -7 23 4 11 -4 14 -35 14 -26 0 -40 -4 -40 -13z"/>
<path d="M2958 2793 c-20 -5 -24 -18 -8 -28 6 -3 17 0 25 9 17 16 9 25 -17 19z"/>
<path d="M2950 2740 c0 -5 5 -10 10 -10 6 0 10 5 10 10 0 6 -4 10 -10 10 -5 0
-10 -4 -10 -10z"/>
<path d="M6560 2460 c-13 -8 -12 -10 3 -10 9 0 17 -4 17 -10 0 -5 4 -10 9 -10
12 0 7 33 -5 37 -5 1 -16 -2 -24 -7z"/>
<path d="M6278 2417 c-19 -16 -94 -136 -103 -165 -5 -18 0 -28 22 -45 15 -12
52 -44 81 -70 30 -27 59 -46 65 -44 16 5 113 134 128 170 16 38 -9 64 -69 73
-44 6 -47 5 -74 -27 -30 -36 -35 -54 -16 -65 6 -4 21 4 34 19 24 28 40 33 63
18 12 -8 7 -20 -24 -65 -21 -31 -41 -56 -44 -56 -3 0 -30 22 -60 48 l-53 48
20 41 c12 22 33 54 47 71 14 16 25 34 25 40 0 16 -27 22 -42 9z"/>
<path d="M5190 2405 c0 -8 5 -15 10 -15 6 0 10 7 10 15 0 8 -4 15 -10 15 -5 0
-10 -7 -10 -15z"/>
<path d="M6113 1760 c0 -30 2 -43 4 -27 2 15 2 39 0 55 -2 15 -4 2 -4 -28z"/>
<path d="M1476 6831 c-3 -5 3 -11 15 -14 16 -4 18 -3 8 9 -13 16 -16 17 -23 5z"/>
<path d="M2565 4820 c-3 -5 -1 -10 4 -10 6 0 11 5 11 10 0 6 -2 10 -4 10 -3 0
-8 -4 -11 -10z"/>
<path d="M4663 4975 c-8 -22 6 -33 17 -15 13 20 12 30 0 30 -6 0 -13 -7 -17
-15z"/>
<path d="M902 4114 c-25 -17 -30 -39 -6 -30 8 3 27 -2 42 -11 26 -17 26 -17
13 0 -14 18 -12 21 13 11 9 -3 13 -11 9 -17 -3 -5 -1 -7 4 -4 12 8 33 -14 50
-52 11 -26 11 -26 12 10 1 41 -11 60 -59 88 -42 25 -49 26 -78 5z"/>
<path d="M832 3978 c-19 -6 -56 -31 -83 -56 -53 -47 -65 -78 -26 -66 12 3 19
3 15 -1 -4 -5 -2 -15 5 -23 10 -13 9 -14 -3 -7 -8 4 5 -13 29 -38 24 -25 58
-53 75 -62 30 -16 35 -16 62 -2 l29 16 -29 1 c-69 1 -171 118 -131 151 8 8 21
19 28 24 7 6 27 17 44 24 31 13 47 12 86 -4 12 -5 17 -3 17 8 0 35 -62 53
-118 35z"/>
<path d="M1000 3869 c-20 -48 -92 -65 -139 -33 -22 16 -23 16 -13 -3 31 -57
84 -56 146 2 23 23 41 46 38 53 -7 21 -19 13 -32 -19z"/>
<path d="M1021 3746 c-6 -7 -38 -33 -71 -57 -61 -44 -72 -59 -44 -59 22 0 83
50 100 83 19 35 28 29 19 -12 -5 -22 -14 -33 -31 -37 -13 -3 -24 -10 -24 -15
0 -5 -7 -9 -15 -9 -8 0 -15 -4 -15 -10 0 -12 80 -13 98 -1 9 5 12 27 10 70 -3
63 -7 71 -27 47z"/>
<path d="M888 3402 c-59 -15 -109 -29 -111 -32 -9 -9 79 -370 93 -384 6 -6 43
1 100 19 81 26 89 31 83 49 -3 12 -18 66 -33 121 -24 89 -29 100 -51 103 -36
3 -53 -11 -41 -34 9 -16 26 -71 48 -155 3 -11 -6 -19 -31 -26 -44 -14 -45 -12
-75 122 -12 55 -26 108 -31 117 -6 12 -4 18 9 22 46 14 156 36 178 36 21 0 29
9 25 33 0 4 5 7 13 7 24 0 37 -85 14 -92 -9 -3 -5 -32 17 -109 26 -96 71 -214
61 -161 -2 13 0 19 6 16 5 -3 7 -18 3 -32 -7 -29 12 -82 30 -82 13 0 33 -34
40 -68 4 -20 2 -22 -11 -11 -9 8 -5 -10 12 -50 15 -34 25 -63 23 -65 -21 -20
-194 -95 -201 -88 -17 17 -78 186 -70 194 4 4 21 10 38 14 29 6 31 4 51 -48
18 -45 24 -53 44 -50 13 1 28 7 33 12 9 9 -50 156 -66 166 -10 6 -64 -10 -135
-42 l-52 -22 28 -69 c40 -97 70 -153 82 -153 6 0 8 -4 5 -9 -4 -5 0 -12 6 -14
10 -4 10 -6 0 -6 -9 -1 -9 -8 3 -32 13 -24 20 -29 38 -24 18 6 264 131 275
140 2 2 -24 63 -56 137 -73 163 -103 246 -137 374 -14 55 -33 123 -41 152
l-15 52 -47 -1 c-26 0 -95 -13 -154 -27z m-68 -97 c0 -8 -4 -15 -10 -15 -5 0
-7 7 -4 15 4 8 8 15 10 15 2 0 4 -7 4 -15z m4 -59 c3 -16 2 -25 -1 -22 -4 4
-9 19 -11 34 -4 35 5 25 12 -12z m296 -37 c0 -11 -4 -17 -10 -14 -5 3 -10 15
-10 26 0 11 5 17 10 14 6 -3 10 -15 10 -26z m165 -439 c3 -5 1 -10 -4 -10 -6
0 -11 5 -11 10 0 6 2 10 4 10 3 0 8 -4 11 -10z"/>
<path d="M1330 2425 c0 -10 64 -95 73 -95 4 0 6 -4 3 -9 -4 -5 2 -23 11 -40
20 -35 26 -26 -62 -95 -33 -27 -38 -28 -46 -13 -5 9 -25 37 -44 62 l-35 45 27
0 c15 0 37 -10 50 -22 21 -20 25 -20 39 -6 13 13 14 19 3 36 -34 54 -169 57
-169 4 0 -18 32 -76 54 -98 8 -7 26 -33 42 -58 16 -25 34 -46 41 -46 6 0 38
23 70 51 32 28 68 56 81 62 12 6 22 16 22 22 0 18 -78 171 -96 189 -14 14 -64
23 -64 11z"/>
<path d="M1485 2190 c-7 -12 2 -30 16 -30 5 0 9 9 9 20 0 21 -15 27 -25 10z"/>
<path d="M5083 4529 c-1 -10 2 -19 8 -19 11 0 12 27 1 34 -4 2 -9 -4 -9 -15z"/>
<path d="M2185 4030 c-3 -5 -2 -10 4 -10 5 0 13 5 16 10 3 6 2 10 -4 10 -5 0
-13 -4 -16 -10z"/>
<path d="M6048 3803 c7 -3 16 -2 19 1 4 3 -2 6 -13 5 -11 0 -14 -3 -6 -6z"/>
<path d="M6205 3600 c3 -5 10 -10 16 -10 5 0 9 5 9 10 0 6 -7 10 -16 10 -8 0
-12 -4 -9 -10z"/>
<path d="M7210 3110 c0 -5 7 -7 15 -4 8 4 15 8 15 10 0 2 -7 4 -15 4 -8 0 -15
-4 -15 -10z"/>
<path d="M7520 2489 c0 -5 5 -7 10 -4 6 3 10 8 10 11 0 2 -4 4 -10 4 -5 0 -10
-5 -10 -11z"/>
<path d="M7537 2460 c-3 -11 -3 -20 -1 -20 2 0 8 9 14 20 6 11 7 20 2 20 -6 0
-12 -9 -15 -20z"/>
<path d="M7527 2401 c-3 -14 0 -21 9 -21 16 0 18 9 5 28 -6 10 -10 9 -14 -7z"/>
<path d="M7570 2366 c0 -9 5 -16 10 -16 6 0 10 4 10 9 0 6 -4 13 -10 16 -5 3
-10 -1 -10 -9z"/>
<path d="M7520 2350 c0 -5 5 -10 10 -10 6 0 10 5 10 10 0 6 -4 10 -10 10 -5 0
-10 -4 -10 -10z"/>
<path d="M7600 2351 c0 -6 4 -13 10 -16 6 -3 7 1 4 9 -7 18 -14 21 -14 7z"/>
<path d="M7567 2303 c6 -16 8 -16 23 1 9 12 8 15 -8 13 -12 0 -18 -6 -15 -14z"/>
<path d="M7445 2190 c3 -5 11 -10 16 -10 6 0 7 5 4 10 -3 6 -11 10 -16 10 -6
0 -7 -4 -4 -10z"/>
<path d="M7493 2176 c-10 -11 -9 -15 2 -19 7 -3 21 3 31 14 16 18 16 19 -2 19
-10 -1 -24 -7 -31 -14z"/>
<path d="M7410 2139 c0 -5 5 -7 10 -4 6 3 10 8 10 11 0 2 -4 4 -10 4 -5 0 -10
-5 -10 -11z"/>
<path d="M7462 2120 c-16 -26 -15 -40 2 -17 8 10 19 16 26 15 7 -2 15 3 17 10
8 20 -31 14 -45 -8z"/>
<path d="M7410 2110 c0 -5 7 -7 15 -4 8 4 15 8 15 10 0 2 -7 4 -15 4 -8 0 -15
-4 -15 -10z"/>
<path d="M7315 2000 c-3 -5 -1 -10 4 -10 6 0 11 5 11 10 0 6 -2 10 -4 10 -3 0
-8 -4 -11 -10z"/>
<path d="M7250 1969 c0 -5 5 -7 10 -4 6 3 10 8 10 11 0 2 -4 4 -10 4 -5 0 -10
-5 -10 -11z"/>
<path d="M7312 1968 c-7 -7 -12 -8 -12 -3 0 5 -7 -1 -16 -13 -8 -12 -21 -22
-29 -22 -8 0 -16 -4 -20 -9 -3 -6 7 -8 22 -6 16 1 27 8 26 14 -2 6 2 11 7 11
6 0 19 9 30 20 11 11 16 20 12 20 -4 0 -13 -5 -20 -12z"/>
<path d="M7206 1904 c-3 -8 1 -17 10 -21 22 -8 29 4 11 21 -13 14 -16 14 -21
0z"/>
<path d="M6885 1730 c-3 -6 1 -7 9 -4 18 7 21 14 7 14 -6 0 -13 -4 -16 -10z"/>
<path d="M6850 1710 c-9 -6 -10 -10 -3 -10 6 0 15 5 18 10 8 12 4 12 -15 0z"/>
<path d="M6785 1680 c3 -5 8 -10 11 -10 2 0 4 5 4 10 0 6 -5 10 -11 10 -5 0
-7 -4 -4 -10z"/>
<path d="M283 2429 c-9 -9 -8 -15 3 -27 19 -19 27 -11 16 17 -6 16 -10 19 -19
10z"/>
<path d="M2184 2195 c-16 -24 -21 -25 -113 -25 -62 0 -101 -4 -109 -12 -7 -7
-12 -32 -12 -57 0 -41 -5 -51 -46 -93 -44 -45 -49 -48 -100 -48 -31 0 -56 -5
-61 -12 -4 -7 -7 -84 -5 -170 2 -119 0 -159 -10 -165 -7 -4 -17 -15 -23 -24
-5 -9 -37 -49 -70 -89 -134 -163 -151 -190 -120 -190 8 0 22 -12 32 -27 10
-16 30 -42 45 -59 15 -16 53 -64 84 -105 31 -41 60 -75 65 -77 5 -2 9 -70 9
-152 l0 -147 63 -7 c57 -7 65 -11 104 -53 38 -40 42 -51 45 -101 l3 -57 1875
0 1875 0 6 53 c7 56 42 117 81 141 12 7 46 15 76 17 30 1 61 9 70 17 10 8 24
17 32 20 10 4 8 6 -7 6 -18 1 -22 9 -27 59 -10 91 -10 127 -2 140 4 7 2 12 -3
12 -26 0 -4 42 70 135 44 55 94 119 111 142 18 24 38 43 45 43 18 0 16 23 -5
46 -9 10 -55 67 -100 126 -46 59 -90 115 -99 123 -13 14 -16 45 -17 183 l-1
167 -67 5 c-59 4 -73 9 -108 40 -38 33 -40 38 -40 91 0 36 -5 61 -14 68 -10 8
-471 12 -1752 14 l-1739 2 -3 23 c-4 29 -18 28 -38 -3z m2490 -141 c28 -73
-42 -224 -104 -224 -36 0 -42 8 -25 34 21 30 19 63 -5 71 -17 5 -20 15 -20 64
0 32 3 61 7 64 3 4 37 7 74 7 52 0 68 -4 73 -16z m-1646 -131 l3 -83 -92 0
-92 0 6 -245 c4 -135 3 -245 -1 -245 -4 0 -51 -3 -104 -7 l-98 -6 -2 249 -3
249 -85 0 -85 0 -3 73 c-2 46 2 79 9 88 10 12 57 14 278 12 l266 -3 3 -82z
m300 -245 l3 -328 -56 0 c-38 0 -54 4 -50 11 10 15 -5 139 -16 139 -5 0 -6
-32 -2 -74 l6 -75 -37 -6 c-69 -13 -66 -26 -68 285 -1 154 -2 299 -3 323 l0
42 50 6 c28 4 77 6 110 5 l60 -1 3 -327z m330 84 l2 -243 108 2 107 2 3 -92 3
-91 -99 0 c-54 0 -154 3 -220 7 l-122 6 0 323 0 323 63 4 c34 2 82 3 107 3
l45 -1 3 -243z m680 236 c5 -7 41 -70 80 -139 l71 -127 21 -168 c12 -93 24
-179 27 -191 5 -20 1 -23 -28 -23 -19 0 -44 -3 -57 -6 -19 -5 -23 -2 -28 26
-4 19 -10 27 -14 20 -4 -7 -5 -21 -3 -31 5 -16 0 -19 -30 -19 l-35 0 -7 65 -7
66 -96 -3 -97 -3 -6 -58 c-4 -32 -9 -60 -12 -63 -10 -10 -177 9 -177 20 0 6 9
85 20 175 l19 163 66 137 c36 75 72 144 80 154 12 14 32 17 109 17 63 0 97 -4
104 -12z m845 5 c2 -5 2 -41 -1 -80 l-4 -73 -109 0 -109 0 0 -32 c0 -32 4 -35
118 -93 l117 -60 3 -69 c3 -74 -13 -205 -27 -219 -10 -10 -150 -32 -268 -41
l-83 -7 0 40 c0 22 -5 43 -11 46 -7 5 -10 -7 -7 -36 3 -41 1 -44 -22 -44 -23
0 -26 5 -38 79 -7 43 -11 85 -8 93 5 11 28 13 130 7 l123 -7 5 37 c2 20 -1 41
-6 45 -6 5 -62 37 -124 71 -62 35 -115 67 -118 72 -7 11 16 231 25 241 22 23
402 51 414 30z m-3380 -722 c-22 -23 -43 -41 -46 -41 -3 0 -24 19 -46 43 l-40
42 42 43 41 42 45 -44 44 -44 -40 -41z m4170 81 l37 -38 -44 -43 -44 -43 -44
40 -43 41 40 40 c21 23 44 41 50 41 6 0 28 -17 48 -38z m-3624 -301 c47 -84
51 -96 66 -211 9 -67 15 -124 13 -125 -2 -2 -28 -5 -58 -6 -48 -4 -55 -2 -58
16 -11 70 -8 68 -73 63 -66 -5 -79 -15 -79 -62 0 -28 -1 -28 -37 -22 -21 3
-47 6 -58 6 -20 0 -21 2 -9 108 11 104 27 155 90 285 l18 37 67 0 68 0 50 -89z
m448 46 l53 -42 0 -111 c0 -122 -1 -124 -76 -204 l-33 -35 -123 5 -123 5 -8
200 c-4 110 -5 206 -2 213 3 9 39 12 132 12 l128 0 52 -43z m253 -89 c18 -73
36 -137 40 -141 7 -8 29 71 61 222 l11 54 60 -6 c33 -3 62 -8 65 -11 3 -3 -25
-97 -62 -209 l-68 -205 -43 -6 c-68 -9 -89 4 -112 71 -11 32 -43 123 -71 201
-28 79 -51 145 -51 147 0 5 48 12 96 14 l42 1 32 -132z m570 82 l0 -50 -75 0
-75 0 0 -35 0 -35 60 0 60 0 0 -45 0 -44 -62 -3 -63 -3 -3 -37 -3 -38 91 0
c80 0 91 -2 86 -16 -3 -9 -6 -29 -6 -45 l0 -29 -145 0 -145 0 0 193 c0 251 -9
237 156 237 l124 0 0 -50z m257 -31 l58 -82 3 82 3 81 65 0 64 0 -2 -212 -3
-213 -62 -3 -63 -3 0 50 c0 42 -6 58 -35 96 -18 25 -42 59 -52 75 -9 17 -21
30 -25 30 -4 0 -8 -56 -8 -125 l0 -125 -65 0 -65 0 0 208 c0 115 3 212 7 215
3 4 32 7 64 7 l57 0 59 -81z m593 49 c0 -70 -7 -78 -65 -78 l-52 0 5 -160 5
-160 -67 0 -66 0 0 160 0 160 -55 0 -55 0 0 55 0 55 175 0 175 0 0 -32z m170
-60 c0 -51 3 -123 7 -160 l6 -68 36 0 c63 0 63 1 60 166 l-4 149 61 3 62 3 4
-183 5 -183 -29 -30 c-28 -30 -29 -30 -151 -33 -117 -3 -123 -2 -149 21 l-28
24 0 192 0 191 60 0 60 0 0 -92z m600 74 l35 -17 8 -100 c9 -105 9 -105 -42
-134 -11 -7 -5 -21 28 -69 22 -34 41 -63 41 -66 0 -6 -90 -36 -107 -36 -8 0
-30 34 -49 75 -26 56 -40 75 -54 75 -18 0 -20 -7 -20 -70 l0 -70 -65 0 -65 0
0 209 c0 191 2 210 18 214 9 3 67 5 127 6 86 1 118 -3 145 -17z m400 -32 l0
-49 -77 -3 -77 -3 -3 -32 -4 -33 60 0 61 0 0 -45 0 -45 -60 0 -60 0 0 -40 0
-40 85 0 85 0 0 -45 0 -45 -145 0 -145 0 0 205 c0 184 2 205 18 214 9 6 72 11
140 11 l122 0 0 -50z"/>
<path d="M2756 1430 c4 -19 10 -44 15 -55 7 -18 8 -18 8 5 0 14 -6 39 -14 55
l-15 30 6 -35z"/>
<path d="M3511 1384 c0 -11 3 -14 6 -6 3 7 2 16 -1 19 -3 4 -6 -2 -5 -13z"/>
<path d="M4187 1733 c-20 -60 -33 -111 -28 -116 4 -4 40 -4 79 -1 65 6 72 9
72 29 0 44 -61 195 -79 195 -5 0 -25 -48 -44 -107z"/>
<path d="M4022 1482 c-7 -29 -12 -63 -11 -75 0 -12 7 7 15 43 8 36 12 70 10
75 -1 6 -8 -14 -14 -43z"/>
<path d="M4453 1485 c0 -27 2 -38 4 -22 2 15 2 37 0 50 -2 12 -4 0 -4 -28z"/>
<path d="M5103 1440 c0 -30 2 -43 4 -27 2 15 2 39 0 55 -2 15 -4 2 -4 -28z"/>
<path d="M2217 1017 c-15 -23 -37 -90 -37 -114 0 -15 96 -18 105 -4 5 10 -31
119 -45 134 -4 4 -14 -3 -23 -16z"/>
<path d="M2111 874 c0 -11 3 -14 6 -6 3 7 2 16 -1 19 -3 4 -6 -2 -5 -13z"/>
<path d="M2353 795 c0 -27 2 -38 4 -22 2 15 2 37 0 50 -2 12 -4 0 -4 -28z"/>
<path d="M2617 1043 c-4 -3 -7 -55 -7 -115 l0 -108 36 0 c68 0 74 9 74 114 0
90 -1 93 -25 104 -29 13 -68 16 -78 5z"/>
<path d="M4013 970 c0 -25 2 -35 4 -22 2 12 2 32 0 45 -2 12 -4 2 -4 -23z"/>
<path d="M5077 1054 c-8 -8 -10 -98 -2 -106 3 -3 22 -2 43 1 37 6 37 6 37 56
0 50 0 50 -35 53 -20 2 -39 0 -43 -4z"/>
<path d="M1756 2149 c-35 -27 -35 -76 -1 -113 24 -26 68 -35 80 -15 4 5 18 14
31 19 56 22 11 130 -54 130 -16 0 -41 -9 -56 -21z m90 -19 c6 -6 8 -24 6 -40
-8 -53 -83 -53 -90 -1 -2 12 -1 29 2 37 6 16 67 19 82 4z"/>
<path d="M5816 2149 c-20 -16 -26 -29 -26 -60 0 -28 4 -39 15 -39 8 0 19 -9
25 -20 15 -28 62 -26 94 4 35 32 35 79 0 111 -33 30 -73 32 -108 4z m100 -36
c10 -37 -7 -58 -47 -58 -30 0 -34 3 -37 28 -5 45 4 57 42 57 30 0 37 -4 42
-27z"/>
<path d="M5985 810 c-8 -13 8 -18 29 -10 19 6 19 7 -2 12 -12 4 -24 2 -27 -2z"/>
<path d="M1765 645 c-16 -9 -33 -22 -37 -28 -11 -18 -10 -77 2 -77 6 0 10 -6
10 -13 0 -8 18 -20 39 -27 36 -12 43 -11 75 9 35 22 43 42 36 91 -5 46 -76 71
-125 45z m79 -31 c12 -32 6 -62 -14 -67 -48 -12 -81 24 -59 65 12 23 64 25 73
2z"/>
<path d="M5816 635 c-19 -18 -26 -34 -26 -62 0 -32 6 -42 35 -61 40 -28 81
-24 112 11 30 35 28 71 -6 106 -38 38 -78 41 -115 6z m88 -11 c10 -4 16 -18
16 -40 0 -27 -5 -35 -24 -40 -44 -11 -61 -1 -64 35 -5 45 25 63 72 45z"/>
</g>
</svg>
